<svg id="Layer_1" data-name="Layer 1" xmlns="http://www.w3.org/2000/svg" viewBox="0 0 220 219"><defs><style>.cls-1{fill:#fff;}.cls-2{fill:none;stroke:#000;stroke-linejoin:bevel;stroke-width:10.52px;}</style></defs><title>font case</title><rect class="cls-1" width="220" height="219"/><circle class="cls-2" cx="85.31" cy="97.84" r="8.71"/><path class="cls-2" d="M110.46,143.33c16.62,0,31.46-13.45,31.46-29.2V96.44c0-30.17-29.92-38.21-46.09-38.21-21.58,0-46.09,13.43-46.09,37V138c0,16.39,8.69,50.47,60.13,50.47"/><path class="cls-2" d="M76.6,96.51c0-18.8,38.42-21.64,38.42,5.13,0,13.86-7.14,21.47-21,21.47-10.06,0-17.42,6.57-17.42,16.81,0,16,17.86,24.62,37.87,24.62,34.5,0,55.81-26.62,55.81-51.23V87.39c0-20.74-9-56.85-60.41-56.85"/></svg>