<?xml version="1.0" encoding="utf-8"?>
<!-- Generator: Adobe Illustrator 21.0.0, SVG Export Plug-In . SVG Version: 6.00 Build 0)  -->
<svg version="1.1" id="Layer_1" xmlns="http://www.w3.org/2000/svg" xmlns:xlink="http://www.w3.org/1999/xlink" x="0px" y="0px"
	 viewBox="0 0 219 219" style="enable-background:new 0 0 219 219;" xml:space="preserve">
<style type="text/css">
	.st0{fill:#FFFFFF;}
	.st1{fill:none;stroke:#000000;stroke-width:10.52;stroke-linejoin:bevel;}
</style>
<title>font case</title>
<circle class="st0" cx="109.5" cy="109.5" r="109.5"/>
<circle class="st1" cx="84.8" cy="97.8" r="8.7"/>
<path class="st1" d="M110,143.3c16.6,0,31.5-13.4,31.5-29.2V96.4c0-30.2-29.9-38.2-46.1-38.2c-21.6,0-46.1,13.4-46.1,37V138
	c0,16.4,8.7,50.5,60.1,50.5"/>
<path class="st1" d="M76.1,96.5c0-18.8,38.4-21.6,38.4,5.1c0,13.9-7.1,21.5-21,21.5c-10.1,0-17.4,6.6-17.4,16.8
	c0,16,17.9,24.6,37.9,24.6c34.5,0,55.8-26.6,55.8-51.2V87.4c0-20.7-9-56.8-60.4-56.8"/>
</svg>
