<?xml version="1.0" encoding="UTF-8" standalone="no"?>
<!-- Created with Inkscape (http://www.inkscape.org/) -->

<svg
   xmlns:dc="http://purl.org/dc/elements/1.1/"
   xmlns:cc="http://creativecommons.org/ns#"
   xmlns:rdf="http://www.w3.org/1999/02/22-rdf-syntax-ns#"
   xmlns:svg="http://www.w3.org/2000/svg"
   xmlns="http://www.w3.org/2000/svg"
   xmlns:sodipodi="http://sodipodi.sourceforge.net/DTD/sodipodi-0.dtd"
   xmlns:inkscape="http://www.inkscape.org/namespaces/inkscape"
   version="1.1"
   id="svg2"
   xml:space="preserve"
   width="1100"
   height="450"
   viewBox="0 0 1100 450"
   sodipodi:docname="galle-display.svg"
   inkscape:version="0.92.2 5c3e80d, 2017-08-06"><metadata
     id="metadata8"><rdf:RDF><cc:Work
         rdf:about=""><dc:format>image/svg+xml</dc:format><dc:type
           rdf:resource="http://purl.org/dc/dcmitype/StillImage" /><dc:title></dc:title></cc:Work></rdf:RDF></metadata><defs
     id="defs6"><clipPath
       clipPathUnits="userSpaceOnUse"
       id="clipPath20"><path
         d="M 0,595.276 H 841.89 V 0 H 0 Z"
         id="path18"
         inkscape:connector-curvature="0" /></clipPath><clipPath
       clipPathUnits="userSpaceOnUse"
       id="clipPath150"><path
         d="M 0,595.276 H 841.89 V 0 H 0 Z"
         id="path148"
         inkscape:connector-curvature="0" /></clipPath></defs><sodipodi:namedview
     pagecolor="#ffffff"
     bordercolor="#666666"
     borderopacity="1"
     objecttolerance="10"
     gridtolerance="10"
     guidetolerance="10"
     inkscape:pageopacity="0"
     inkscape:pageshadow="2"
     inkscape:window-width="1822"
     inkscape:window-height="1159"
     id="namedview4"
     showgrid="false"
     inkscape:zoom="0.84100751"
     inkscape:cx="631.20343"
     inkscape:cy="142.21047"
     inkscape:window-x="667"
     inkscape:window-y="0"
     inkscape:window-maximized="0"
     inkscape:current-layer="g10" /><g
     id="g10"
     inkscape:groupmode="layer"
     inkscape:label="press-images"
     transform="matrix(1.3333333,0,0,-1.3333333,0,449.99997)"><g
       id="g14"
       style="fill:#000000"
       transform="matrix(1.2549828,0,0,1.2549828,-69.07889,-347.18101)"><g
         id="g16"
         clip-path="url(#clipPath20)"
         style="fill:#000000"><g
           id="g42"
           transform="matrix(2.6359683,0,0,2.6359683,252.917,424.27627)"
           style="fill:#000000"><path
             d="m 0,0 c 0.654,0.553 0.983,1.322 0.983,2.307 0,2.419 -0.902,4.407 -2.706,5.965 -1.804,1.558 -4.07,2.696 -6.796,3.415 -2.728,0.716 -5.485,1.075 -8.272,1.075 -4.02,0 -7.996,-0.553 -11.934,-1.66 -3.935,-1.107 -7.77,-3.342 -11.501,-6.705 1.846,1.025 3.711,1.538 5.597,1.538 2.379,0 4.511,-0.502 6.397,-1.507 1.886,-1.005 3.341,-2.47 4.367,-4.397 0.739,1.599 1.866,2.9 3.383,3.906 1.516,1.003 3.362,1.506 5.535,1.506 2.092,0 3.772,-0.41 5.044,-1.23 1.27,-0.821 2.584,-1.968 3.937,-3.444 0.45,-0.493 0.992,-0.882 1.629,-1.169 0.636,-0.287 1.281,-0.431 1.938,-0.431 0.943,0 1.743,0.278 2.399,0.831 m -40.656,-13.532 c 0.819,1.087 1.229,2.491 1.229,4.214 0,0.655 0.083,1.188 0.246,1.599 0.164,0.409 0.534,0.615 1.109,0.615 0.574,0 0.941,-0.206 1.106,-0.615 0.164,-0.411 0.247,-0.944 0.247,-1.599 0,-1.682 0.47,-3.066 1.414,-4.152 0.944,-1.087 2.377,-1.631 4.306,-1.631 1.763,0 3.198,0.81 4.305,2.43 1.106,1.62 1.661,3.537 1.661,5.752 0,3.607 -0.903,6.263 -2.706,7.964 -1.805,1.702 -4.326,2.553 -7.566,2.553 -1.558,0 -3.209,-0.36 -4.952,-1.076 -1.743,-0.719 -3.25,-2 -4.519,-3.844 l -6.213,-8.673 c 0.697,-1.559 1.589,-2.809 2.676,-3.752 1.085,-0.943 2.347,-1.414 3.783,-1.414 1.76,0 3.053,0.543 3.874,1.629 M 3.689,-37.55 c -0.04,0 -0.082,0.021 -0.123,0.062 -1.843,0.368 -3.258,1.251 -4.243,2.644 -0.984,1.395 -1.476,3.568 -1.476,6.52 0,3.609 0.758,8.303 2.276,14.085 -0.861,-0.78 -2.245,-1.569 -4.151,-2.368 -1.908,-0.8 -3.907,-1.199 -5.998,-1.199 -3.076,0 -5.701,0.532 -7.873,1.599 -2.173,1.065 -3.855,2.561 -5.042,4.49 -0.576,-1.887 -1.538,-3.374 -2.891,-4.459 -1.355,-1.088 -3.075,-1.63 -5.167,-1.63 -1.723,0 -3.271,0.481 -4.645,1.445 -1.374,0.964 -2.183,2.122 -2.428,3.476 -0.246,-1.395 -0.953,-2.564 -2.123,-3.507 -1.168,-0.943 -2.614,-1.414 -4.335,-1.414 -2.011,0 -3.712,0.594 -5.106,1.784 -1.395,1.188 -2.912,3.198 -4.552,6.027 l 8.549,12.117 c 0.697,0.943 1.047,1.926 1.047,2.952 0,1.066 -0.34,1.968 -1.015,2.707 -0.677,0.738 -1.508,1.106 -2.492,1.106 -0.942,0 -1.681,-0.307 -2.214,-0.923 -0.534,-0.614 -0.799,-1.291 -0.799,-2.029 l 0.061,-0.492 0.185,0.185 c 0.37,0.328 0.84,0.492 1.415,0.492 0.615,0 1.128,-0.216 1.537,-0.646 0.41,-0.431 0.616,-0.933 0.616,-1.507 0,-0.738 -0.257,-1.344 -0.768,-1.815 -0.514,-0.471 -1.161,-0.707 -1.94,-0.707 -1.148,0 -2.039,0.389 -2.674,1.168 -0.636,0.779 -0.954,1.723 -0.954,2.83 0,0.862 0.162,1.681 0.491,2.461 -0.491,0.615 -1.106,0.922 -1.843,0.922 -2.134,0 -3.795,-1.241 -4.983,-3.722 -1.19,-2.481 -1.784,-5.34 -1.784,-8.58 0,-2.952 0.317,-5.454 0.954,-7.503 0.635,-2.051 1.465,-3.343 2.491,-3.875 v 0.246 c 0,0.574 0.185,0.993 0.553,1.261 0.369,0.266 0.819,0.4 1.353,0.4 0.575,0 1.066,-0.185 1.475,-0.554 0.41,-0.369 0.616,-0.903 0.616,-1.6 0,-0.82 -0.307,-1.476 -0.921,-1.967 -0.617,-0.492 -1.334,-0.738 -2.154,-0.738 -1.189,0 -2.328,0.512 -3.413,1.537 -1.088,1.024 -1.969,2.615 -2.644,4.767 -0.678,2.153 -1.016,4.829 -1.016,8.026 0,4.183 0.84,7.699 2.521,10.549 1.681,2.85 3.998,4.275 6.952,4.275 0.531,0 1.106,-0.123 1.72,-0.369 0.617,-0.246 1.149,-0.575 1.6,-0.984 1.025,0.901 2.215,1.353 3.567,1.353 1.477,0 2.757,-0.523 3.845,-1.569 1.085,-1.046 1.629,-2.327 1.629,-3.844 V 5.32 c 3.527,3.69 7.658,6.274 12.395,7.75 4.736,1.476 9.214,2.214 13.439,2.214 3.443,0 6.714,-0.441 9.81,-1.322 C -3.886,13.08 -1.353,11.676 0.614,9.749 2.583,7.82 3.566,5.34 3.566,2.307 c 0,-1.682 -0.563,-3.056 -1.69,-4.122 -1.128,-1.067 -2.491,-1.599 -4.091,-1.599 -2.173,0 -4.162,0.984 -5.966,2.952 -0.82,0.902 -1.814,1.661 -2.982,2.276 -1.17,0.616 -2.43,0.923 -3.784,0.923 -1.64,0 -2.992,-0.369 -4.059,-1.107 -1.066,-0.738 -1.846,-1.651 -2.337,-2.737 -0.492,-1.087 -0.738,-2.143 -0.738,-3.168 0,-3.362 1.056,-6.007 3.168,-7.934 2.111,-1.928 5.074,-2.892 8.887,-2.892 4.633,0 8.507,1.928 11.626,5.783 0.123,0.123 0.285,0.184 0.49,0.184 0.287,0 0.544,-0.164 0.769,-0.492 0.225,-0.328 0.339,-0.78 0.339,-1.353 0,-0.451 -0.042,-0.8 -0.123,-1.046 -0.902,-3.608 -1.579,-6.663 -2.03,-9.164 -0.452,-2.5 -0.676,-4.633 -0.676,-6.396 0,-2.009 0.296,-3.578 0.891,-4.706 0.594,-1.127 1.527,-1.855 2.799,-2.183 0.328,-0.041 0.574,-0.205 0.739,-0.493 0.162,-0.286 0.245,-0.594 0.245,-0.922 0,-0.451 -0.113,-0.84 -0.338,-1.169 -0.226,-0.327 -0.544,-0.492 -0.954,-0.492 z"
             style="fill:#000000;fill-opacity:1;fill-rule:nonzero;stroke:none"
             id="path44"
             inkscape:connector-curvature="0" /></g><g
           id="g46"
           transform="matrix(2.6359683,0,0,2.6359683,263.40643,489.00735)"
           style="fill:#000000"><path
             d="M 0,0 C 0.268,0.348 0.401,0.686 0.401,1.014 0.401,1.424 0.268,1.793 0,2.122 -0.266,2.449 -0.665,2.86 -1.198,3.352 -1.731,3.884 -2.06,4.253 -2.184,4.459 v -4.798 c 0.33,-0.123 0.637,-0.184 0.924,-0.184 0.573,0 0.994,0.174 1.26,0.523 m -4.766,8.334 c 0,0.45 0.133,0.82 0.4,1.106 0.266,0.288 0.584,0.432 0.953,0.432 0.369,0 0.667,-0.144 0.892,-0.432 0.225,-0.286 0.337,-0.676 0.337,-1.168 0,-0.779 0.217,-1.435 0.647,-1.968 C -1.106,5.771 -0.461,5.156 0.401,4.459 1.304,3.721 1.979,3.064 2.43,2.49 2.882,1.916 3.107,1.199 3.107,0.338 c 0,-0.78 -0.337,-1.476 -1.015,-2.091 -0.677,-0.615 -1.547,-0.923 -2.614,-0.923 -0.492,0 -1.045,0.102 -1.662,0.308 v -14.946 h -2.582 z"
             style="fill:#000000;fill-opacity:1;fill-rule:nonzero;stroke:none"
             id="path48"
             inkscape:connector-curvature="0" /></g><g
           id="g54"
           transform="matrix(0.99023946,0,0,0.99023946,345.79446,455.50275)"
           style="fill:#000000"><path
             d="m 0,0 c 1.6,0.493 2.829,1.066 3.689,1.723 v 7.381 c 0,2.295 0.134,4.089 0.402,5.381 0.265,1.292 0.828,2.388 1.69,3.29 -0.533,0.247 -0.994,0.533 -1.385,0.862 -0.389,0.328 -0.891,0.84 -1.505,1.537 -1.518,1.64 -3.107,2.922 -4.768,3.845 -1.661,0.922 -3.496,1.383 -5.505,1.383 -2.296,0 -4.315,-0.625 -6.057,-1.875 -1.744,-1.252 -3.076,-2.902 -3.998,-4.952 -0.923,-2.05 -1.384,-4.203 -1.384,-6.458 0,-2.501 0.584,-4.726 1.753,-6.674 1.169,-1.947 2.788,-3.464 4.858,-4.551 2.071,-1.086 4.418,-1.63 7.043,-1.63 1.846,0 3.568,0.246 5.167,0.738 m 1.567,-23.587 c -0.224,0.226 -0.338,0.544 -0.338,0.953 0,0.41 0.125,0.8 0.371,1.168 0.244,0.37 0.388,0.575 0.428,0.616 0.657,0.903 1.099,2.091 1.324,3.567 0.225,1.476 0.337,3.711 0.337,6.704 v 9.164 c -0.696,-0.491 -1.793,-0.952 -3.29,-1.383 -1.497,-0.431 -3.228,-0.646 -5.197,-0.646 -3.281,0 -6.192,0.667 -8.734,1.999 -2.543,1.332 -4.511,3.198 -5.905,5.597 -1.393,2.399 -2.09,5.115 -2.09,8.149 0,2.707 0.552,5.269 1.661,7.689 1.106,2.419 2.776,4.377 5.012,5.874 2.235,1.496 4.93,2.245 8.087,2.245 2.871,0 5.7,-1.313 8.49,-3.937 C 1.64,24.336 1.6,24.643 1.6,25.095 c 0,0.615 0.153,1.148 0.461,1.599 0.307,0.451 0.654,0.8 1.044,1.046 0.389,0.246 0.687,0.369 0.892,0.369 0.247,0 0.912,-0.206 1.999,-0.615 1.086,-0.411 1.978,-0.779 2.676,-1.107 0.573,-0.247 0.932,-0.451 1.077,-0.616 0.143,-0.164 0.215,-0.369 0.215,-0.614 0,-0.615 -0.083,-1.056 -0.247,-1.323 -0.163,-0.267 -0.49,-0.399 -0.984,-0.399 -0.41,0 -0.81,0.092 -1.199,0.276 -0.39,0.185 -0.759,0.39 -1.107,0.615 -0.348,0.225 -0.626,0.4 -0.83,0.523 -0.206,0.164 -0.391,0.246 -0.554,0.246 -0.451,0 -0.676,-0.41 -0.676,-1.23 0,-0.328 0.04,-0.615 0.123,-0.861 0.163,-0.902 0.44,-1.59 0.83,-2.061 0.389,-0.471 1.199,-0.974 2.43,-1.506 0.573,-0.246 0.922,-0.441 1.045,-0.585 0.123,-0.144 0.184,-0.4 0.184,-0.769 0,-0.41 -0.165,-0.697 -0.492,-0.861 C 7.75,16.401 7.216,15.571 6.888,14.731 6.56,13.89 6.397,12.855 6.397,11.625 v -22.204 c 0,-6.478 -0.903,-10.722 -2.708,-12.732 -0.452,-0.409 -0.86,-0.614 -1.229,-0.614 -0.369,0 -0.667,0.113 -0.893,0.338"
             style="fill:#000000;fill-opacity:1;fill-rule:nonzero;stroke:none"
             id="path56"
             inkscape:connector-curvature="0" /></g><g
           id="g58"
           transform="matrix(0.99023946,0,0,0.99023946,384.25615,494.20913)"
           style="fill:#000000"><path
             d="M 0,0 C 0.266,0.348 0.399,0.687 0.399,1.015 0.399,1.424 0.266,1.793 0,2.122 -0.267,2.449 -0.668,2.86 -1.199,3.352 -1.732,3.884 -2.062,4.253 -2.185,4.459 v -4.797 c 0.33,-0.123 0.635,-0.185 0.924,-0.185 0.574,0 0.994,0.174 1.261,0.523 m -4.768,8.334 c 0,0.451 0.133,0.82 0.4,1.107 0.267,0.287 0.584,0.431 0.954,0.431 0.369,0 0.666,-0.144 0.892,-0.431 0.225,-0.287 0.337,-0.677 0.337,-1.169 0,-0.779 0.216,-1.435 0.648,-1.968 C -1.108,5.771 -0.462,5.156 0.399,4.459 1.301,3.721 1.978,3.065 2.429,2.491 2.881,1.916 3.105,1.199 3.105,0.338 c 0,-0.779 -0.337,-1.476 -1.014,-2.091 -0.676,-0.615 -1.549,-0.923 -2.614,-0.923 -0.492,0 -1.046,0.102 -1.662,0.308 v -14.946 h -2.583 z m 7.812,-70.547 c -1.846,0.409 -3.26,1.312 -4.243,2.705 -0.986,1.395 -1.477,3.568 -1.477,6.52 0,3.568 0.759,8.263 2.276,14.085 -0.903,-0.78 -2.307,-1.579 -4.212,-2.399 -1.908,-0.819 -3.887,-1.23 -5.937,-1.23 -4.88,0 -8.611,1.435 -11.194,4.305 -2.583,2.87 -3.874,6.726 -3.874,11.563 0,2.666 0.48,5.199 1.444,7.597 0.964,2.399 2.43,4.346 4.399,5.843 1.968,1.496 4.345,2.245 7.133,2.245 2.585,0 5.29,-1.313 8.12,-3.937 -0.083,0.41 -0.124,0.718 -0.124,0.923 0,0.82 0.288,1.528 0.861,2.122 0.575,0.594 1.211,0.892 1.907,0.892 0.41,0 0.779,-0.072 1.108,-0.215 0.328,-0.144 0.716,-0.36 1.168,-0.646 0.821,-0.575 1.517,-0.861 2.091,-0.861 0.369,0 0.666,-0.175 0.892,-0.523 0.225,-0.349 0.34,-0.728 0.34,-1.138 0,-0.369 -0.105,-0.677 -0.309,-0.922 -0.205,-0.246 -0.492,-0.369 -0.861,-0.369 -0.451,0 -0.861,0.081 -1.231,0.246 -0.369,0.163 -0.727,0.368 -1.076,0.615 -0.349,0.246 -0.625,0.43 -0.83,0.553 -0.206,0.164 -0.43,0.246 -0.676,0.246 -0.247,0 -0.441,-0.092 -0.585,-0.277 -0.143,-0.185 -0.216,-0.44 -0.216,-0.769 0,-0.368 0.103,-0.717 0.308,-1.044 0.451,-0.739 1.097,-1.334 1.938,-1.785 0.84,-0.452 1.588,-0.676 2.245,-0.676 0.328,0 0.594,-0.144 0.8,-0.431 0.204,-0.287 0.307,-0.595 0.307,-0.922 0,-0.37 -0.113,-0.677 -0.339,-0.923 -0.225,-0.246 -0.522,-0.369 -0.89,-0.369 -1.149,0 -2.206,0.287 -3.168,0.861 -0.965,0.574 -2.103,1.435 -3.413,2.583 -1.6,1.353 -2.996,2.369 -4.183,3.045 -1.19,0.677 -2.584,1.014 -4.184,1.014 -2.336,0 -4.273,-0.687 -5.811,-2.06 -1.537,-1.374 -2.666,-3.055 -3.383,-5.043 -0.718,-1.99 -1.076,-3.947 -1.076,-5.875 0,-4.058 1.076,-7.267 3.228,-9.625 2.154,-2.358 5.197,-3.537 9.134,-3.537 2.789,0 5.095,0.564 6.92,1.692 1.824,1.128 3.413,2.491 4.766,4.09 0.083,0.164 0.225,0.247 0.431,0.247 0.286,0 0.554,-0.176 0.799,-0.524 0.246,-0.348 0.369,-0.79 0.369,-1.322 0,-0.206 -0.041,-0.553 -0.123,-1.046 -1.804,-7.298 -2.706,-12.505 -2.706,-15.622 0,-1.969 0.287,-3.516 0.863,-4.644 0.573,-1.128 1.495,-1.855 2.766,-2.183 0.655,-0.164 0.985,-0.655 0.985,-1.477 0,-0.45 -0.114,-0.84 -0.338,-1.168 -0.228,-0.328 -0.523,-0.492 -0.893,-0.492 -0.123,0 -0.205,0.021 -0.246,0.062"
             style="fill:#000000;fill-opacity:1;fill-rule:nonzero;stroke:none"
             id="path60"
             inkscape:connector-curvature="0" /></g><g
           id="g62"
           transform="matrix(0.99023946,0,0,0.99023946,410.35441,468.35457)"
           style="fill:#000000"><path
             d="m 0,0 c 0.777,0.778 1.168,1.701 1.168,2.768 0,1.065 -0.391,1.988 -1.168,2.767 -0.779,0.778 -1.703,1.169 -2.77,1.169 -1.106,0 -2.039,-0.391 -2.796,-1.169 -0.76,-0.779 -1.139,-1.702 -1.139,-2.767 0,-1.067 0.379,-1.99 1.139,-2.768 0.757,-0.779 1.69,-1.169 2.796,-1.169 1.067,0 1.991,0.39 2.77,1.169 m -10.518,-14.27 c -2.544,1.435 -4.502,3.445 -5.874,6.028 -1.374,2.583 -2.06,5.535 -2.06,8.857 0,2.788 0.573,5.176 1.723,7.165 1.146,1.989 2.623,3.496 4.427,4.521 1.804,1.025 3.69,1.538 5.658,1.538 1.64,0 3.24,-0.4 4.798,-1.2 C -0.288,11.84 1.003,10.61 2.028,8.949 3.054,7.288 3.566,5.228 3.566,2.768 3.566,0.922 2.941,-0.646 1.69,-1.938 0.439,-3.229 -1.047,-3.875 -2.77,-3.875 c -1.843,0 -3.423,0.646 -4.734,1.937 -1.313,1.292 -1.969,2.86 -1.969,4.706 0,1.804 0.604,3.311 1.815,4.52 1.209,1.209 2.614,1.815 4.213,1.815 1.516,0 2.89,-0.575 4.121,-1.723 -0.78,1.394 -1.815,2.389 -3.106,2.984 -1.292,0.594 -2.717,0.891 -4.275,0.891 -1.559,0 -3.024,-0.421 -4.399,-1.26 -1.374,-0.841 -2.489,-2.061 -3.351,-3.661 -0.86,-1.599 -1.291,-3.505 -1.291,-5.719 0,-2.871 0.584,-5.372 1.752,-7.504 1.17,-2.132 2.818,-3.773 4.953,-4.921 2.13,-1.148 4.59,-1.722 7.38,-1.722 2.542,0 4.817,0.563 6.826,1.692 2.01,1.127 3.577,2.685 4.706,4.674 1.127,1.988 1.692,4.233 1.692,6.735 0,4.469 -1.231,7.873 -3.69,10.21 -2.462,2.338 -5.885,4.079 -10.272,5.228 l -2.645,0.677 c -2.625,0.615 -4.705,1.231 -6.242,1.845 -1.538,0.615 -2.831,1.599 -3.876,2.952 -1.045,1.353 -1.567,3.199 -1.567,5.536 0,2.214 0.665,4.069 1.998,5.566 1.332,1.496 3.033,2.614 5.104,3.353 2.07,0.737 4.213,1.107 6.429,1.107 3.033,0 5.728,-0.411 8.087,-1.231 2.358,-0.82 4.193,-1.978 5.505,-3.475 1.312,-1.497 1.968,-3.27 1.968,-5.32 0,-1.641 -0.389,-3.075 -1.17,-4.306 C 10.413,20.481 9.42,19.548 8.211,18.913 7,18.277 5.739,17.959 4.428,17.959 c -1.928,0 -3.721,0.432 -5.382,1.292 -1.66,0.861 -3.005,2.254 -4.028,4.183 -0.123,0.328 -0.185,0.593 -0.185,0.799 0,0.37 0.123,0.646 0.369,0.83 0.246,0.186 0.531,0.278 0.86,0.278 0.574,0 0.964,-0.226 1.168,-0.677 1.436,-2.747 3.834,-4.121 7.198,-4.121 1.434,0 2.676,0.481 3.721,1.445 1.045,0.964 1.568,2.307 1.568,4.029 0,2.255 -1.117,4.029 -3.352,5.32 -2.236,1.292 -5.423,1.937 -9.563,1.937 -3.035,0 -5.599,-0.584 -7.689,-1.752 -2.092,-1.169 -3.136,-3.004 -3.136,-5.505 0,-1.722 0.45,-3.096 1.352,-4.121 0.901,-1.025 1.988,-1.774 3.26,-2.245 1.27,-0.471 2.91,-0.933 4.921,-1.384 l 2.829,-0.738 c 3.198,-0.944 5.955,-2.071 8.272,-3.383 2.316,-1.313 4.203,-3.158 5.659,-5.536 1.455,-2.378 2.183,-5.392 2.183,-9.041 0,-3.035 -0.676,-5.772 -2.029,-8.211 -1.355,-2.44 -3.251,-4.347 -5.69,-5.72 -2.44,-1.373 -5.239,-2.06 -8.395,-2.06 -3.363,0 -6.316,0.717 -8.857,2.152"
             style="fill:#000000;fill-opacity:1;fill-rule:nonzero;stroke:none"
             id="path64"
             inkscape:connector-curvature="0" /></g><g
           id="g66"
           transform="matrix(0.99023946,0,0,0.99023946,468.7621,457.05574)"
           style="fill:#000000"><path
             d="m 0,0 c 1.64,1.046 2.912,2.46 3.814,4.245 0.901,1.783 1.353,3.699 1.353,5.75 0,2.337 -0.514,4.572 -1.537,6.705 -1.026,2.131 -2.625,3.875 -4.798,5.228 -2.175,1.353 -4.9,2.029 -8.181,2.029 -2.912,0 -5.454,-0.595 -7.627,-1.783 -2.172,-1.19 -4.714,-3.26 -7.627,-6.213 0.903,0.164 1.559,0.246 1.969,0.246 2.952,0 5.352,-0.82 7.196,-2.459 1.845,-1.641 2.769,-3.937 2.769,-6.889 0,-1.149 -0.103,-2.153 -0.308,-3.015 -0.206,-0.86 -0.513,-1.762 -0.923,-2.706 1.27,-0.943 2.522,-1.63 3.753,-2.06 1.229,-0.431 2.726,-0.646 4.489,-0.646 2.133,0 4.018,0.523 5.658,1.568 m -20.174,25.157 c -1.845,0.923 -3.228,2.153 -4.15,3.69 -0.924,1.538 -1.385,3.168 -1.385,4.89 0,1.968 0.605,3.813 1.813,5.535 1.209,1.723 2.8,3.096 4.768,4.121 1.968,1.024 4.038,1.538 6.213,1.538 2.336,0 4.447,-0.43 6.335,-1.291 1.885,-0.862 3.371,-2.082 4.458,-3.661 1.086,-1.579 1.631,-3.393 1.631,-5.442 0,-1.354 -0.38,-2.553 -1.138,-3.599 -0.76,-1.045 -1.714,-1.845 -2.86,-2.399 -1.15,-0.553 -2.297,-0.83 -3.446,-0.83 -2.5,0 -4.243,0.697 -5.226,2.092 -0.287,0.368 -0.432,0.717 -0.432,1.045 0,0.328 0.103,0.573 0.308,0.738 0.205,0.164 0.472,0.246 0.799,0.246 0.37,0 0.635,-0.103 0.8,-0.308 0.616,-0.533 1.201,-0.872 1.752,-1.014 0.555,-0.144 1.22,-0.216 1.999,-0.216 1.19,0 2.277,0.389 3.26,1.169 0.986,0.778 1.477,1.804 1.477,3.076 0,2.254 -0.952,4.099 -2.86,5.535 -1.907,1.434 -4.194,2.153 -6.857,2.153 -1.682,0 -3.303,-0.391 -4.859,-1.169 -1.559,-0.779 -2.821,-1.815 -3.784,-3.106 -0.963,-1.291 -1.445,-2.697 -1.445,-4.213 0,-1.231 0.358,-2.399 1.076,-3.506 0.718,-1.107 1.793,-2.009 3.229,-2.706 1.435,-0.698 3.177,-1.046 5.228,-1.046 0.451,0 0.851,-0.165 1.2,-0.492 0.347,-0.329 0.523,-0.676 0.523,-1.046 0,-0.329 -0.145,-0.605 -0.431,-0.83 -0.287,-0.226 -0.718,-0.338 -1.292,-0.338 -2.625,0 -4.859,0.461 -6.704,1.384 m 2.277,-24.449 c 1.639,1.516 2.459,3.567 2.459,6.151 0,2.214 -0.738,3.914 -2.213,5.104 -1.477,1.189 -3.22,1.785 -5.229,1.785 -1.476,0 -2.697,-0.309 -3.66,-0.923 -0.964,-0.615 -2.143,-1.62 -3.536,-3.014 -0.903,-0.902 -1.998,-1.712 -3.29,-2.43 -1.293,-0.717 -2.43,-1.076 -3.414,-1.076 l -0.553,0.061 c 1.064,-2.337 2.695,-4.243 4.889,-5.72 2.192,-1.476 4.683,-2.214 7.473,-2.214 3.075,0 5.432,0.758 7.074,2.276 m -17.252,-1.292 c -2.647,2.46 -4.686,5.699 -6.122,9.719 1.107,-0.534 2.195,-0.8 3.26,-0.8 1.846,0 3.536,0.697 5.074,2.091 1.539,1.393 3.169,3.199 4.891,5.412 0.451,0.574 0.676,1.312 0.676,2.215 0,1.065 -0.308,2.039 -0.922,2.921 -0.615,0.881 -1.395,1.322 -2.338,1.322 -0.943,0 -1.682,-0.287 -2.214,-0.86 -0.534,-0.575 -0.8,-1.231 -0.8,-1.969 v -0.491 c 0.411,0.45 0.923,0.676 1.538,0.676 0.616,0 1.138,-0.195 1.569,-0.584 0.43,-0.391 0.645,-0.892 0.645,-1.507 0,-0.779 -0.266,-1.406 -0.799,-1.876 -0.534,-0.472 -1.251,-0.707 -2.153,-0.707 -1.067,0 -1.927,0.388 -2.584,1.168 -0.656,0.778 -0.983,1.722 -0.983,2.83 0,1.638 0.554,3.044 1.661,4.212 1.106,1.169 2.48,1.753 4.12,1.753 1.559,0 2.901,-0.522 4.028,-1.568 1.128,-1.046 1.793,-2.328 1.999,-3.844 1.763,1.722 3.282,3.065 4.552,4.029 1.271,0.962 2.778,1.731 4.522,2.306 1.741,0.573 3.801,0.861 6.18,0.861 3.772,0 6.96,-0.81 9.566,-2.429 C 2.818,22.675 4.768,20.583 6.06,18.022 7.351,15.458 7.996,12.784 7.996,9.995 7.996,7.412 7.504,5.034 6.521,2.861 5.536,0.687 4.029,-1.045 2,-2.337 c -2.03,-1.291 -4.583,-1.937 -7.658,-1.937 -1.969,0 -3.701,0.286 -5.197,0.861 -1.498,0.574 -2.922,1.517 -4.275,2.829 -1.476,-1.353 -2.974,-2.307 -4.49,-2.86 -1.517,-0.553 -3.301,-0.83 -5.351,-0.83 -4.142,0 -7.535,1.23 -10.178,3.69"
             style="fill:#000000;fill-opacity:1;fill-rule:nonzero;stroke:none"
             id="path68"
             inkscape:connector-curvature="0" /></g><g
           id="g70"
           transform="matrix(0.99023946,0,0,0.99023946,487.76519,454.22385)"
           style="fill:#000000"><path
             d="m 0,0 c -1.764,0.943 -3.179,2.316 -4.245,4.122 -1.066,1.803 -1.599,3.976 -1.599,6.519 0,2.296 0.44,4.254 1.323,5.874 0.881,1.619 1.948,2.839 3.199,3.659 1.251,0.82 2.387,1.23 3.413,1.23 -0.984,0.082 -1.682,0.123 -2.091,0.123 -0.984,0 -1.866,-0.102 -2.646,-0.307 -0.779,-0.205 -1.312,-0.328 -1.599,-0.369 -0.082,-0.041 -0.246,-0.061 -0.49,-0.061 -0.452,0 -0.822,0.143 -1.109,0.43 -0.287,0.286 -0.429,0.615 -0.429,0.984 0,0.369 0.123,0.697 0.368,0.984 0.246,0.286 0.594,0.451 1.047,0.492 0.86,0.205 1.925,0.308 3.198,0.308 2.336,0 4.263,-0.349 5.781,-1.046 -0.616,0.738 -0.924,1.578 -0.924,2.522 0,0.984 0.391,1.846 1.17,2.583 0.778,0.739 1.844,1.107 3.198,1.107 0.738,0 1.363,-0.123 1.876,-0.368 0.512,-0.247 1.077,-0.576 1.691,-0.985 0.862,-0.656 1.599,-0.984 2.215,-0.984 0.369,0 0.655,-0.134 0.86,-0.4 0.206,-0.267 0.308,-0.584 0.308,-0.953 0,-0.329 -0.102,-0.615 -0.308,-0.861 -0.205,-0.247 -0.491,-0.369 -0.86,-0.369 -0.616,0 -1.138,0.101 -1.57,0.307 -0.428,0.205 -0.953,0.533 -1.567,0.984 -0.287,0.205 -0.595,0.41 -0.924,0.616 -0.327,0.204 -0.676,0.348 -1.045,0.43 l -0.492,0.062 c -0.533,0 -0.983,-0.154 -1.353,-0.462 -0.368,-0.307 -0.553,-0.667 -0.553,-1.076 0,-0.698 0.308,-1.261 0.923,-1.691 0.615,-0.431 1.762,-0.975 3.444,-1.63 1.024,-0.37 1.538,-0.882 1.538,-1.538 0,-0.164 -0.021,-0.287 -0.061,-0.369 -0.043,-0.328 -0.196,-0.584 -0.462,-0.769 -0.267,-0.184 -0.565,-0.277 -0.892,-0.277 l -0.431,0.062 -1.415,0.369 c -1.065,0.328 -2.112,0.492 -3.136,0.492 -2.542,0 -4.594,-0.861 -6.151,-2.583 -1.558,-1.723 -2.337,-3.896 -2.337,-6.52 0,-1.928 0.408,-3.598 1.231,-5.013 C -1.087,4.214 0,3.137 1.354,2.399 2.706,1.661 4.202,1.292 5.843,1.292 c 2.787,0 4.951,0.901 6.489,2.706 1.537,1.804 2.307,4.183 2.307,7.135 0,0.862 0.47,1.292 1.414,1.292 0.901,0 1.352,-0.43 1.352,-1.292 0,-2.952 0.781,-5.331 2.339,-7.135 1.557,-1.805 3.73,-2.706 6.519,-2.706 1.598,0 3.085,0.369 4.459,1.107 1.374,0.738 2.47,1.815 3.29,3.229 0.82,1.415 1.231,3.085 1.231,5.013 0,2.583 -0.789,4.746 -2.368,6.489 -1.579,1.743 -3.62,2.614 -6.12,2.614 -0.984,0 -2.052,-0.164 -3.198,-0.492 l -1.354,-0.369 -0.431,-0.062 c -0.737,0 -1.209,0.348 -1.414,1.046 v 0.369 c 0,0.779 0.512,1.291 1.538,1.538 1.393,0.286 2.357,0.615 2.89,0.984 0.779,0.533 1.17,1.25 1.17,2.153 0,0.655 -0.144,1.291 -0.431,1.906 l -0.061,0.37 c 0,0.285 0.123,0.542 0.369,0.768 0.246,0.225 0.553,0.338 0.922,0.338 0.656,0 1.106,-0.267 1.352,-0.8 0.371,-0.779 0.555,-1.64 0.555,-2.582 0,-1.231 -0.349,-2.175 -1.045,-2.83 h 0.676 c 1.886,0 3.567,-0.554 5.044,-1.66 1.476,-1.108 2.614,-2.543 3.413,-4.306 0.8,-1.764 1.199,-3.588 1.199,-5.474 0,-2.543 -0.533,-4.716 -1.598,-6.519 C 35.282,2.316 33.859,0.943 32.075,0 c -1.784,-0.943 -3.721,-1.415 -5.812,-1.415 -2.296,0 -4.451,0.585 -6.457,1.754 C 17.795,1.507 16.545,2.973 16.053,4.736 15.438,2.931 14.187,1.455 12.302,0.308 10.414,-0.841 8.263,-1.415 5.843,-1.415 3.711,-1.415 1.762,-0.943 0,0"
             style="fill:#000000;fill-opacity:1;fill-rule:nonzero;stroke:none"
             id="path72"
             inkscape:connector-curvature="0" /></g><g
           id="g74"
           transform="matrix(0.99023946,0,0,0.99023946,518.49064,494.20913)"
           style="fill:#000000"><path
             d="M 0,0 C 0.268,0.348 0.399,0.687 0.399,1.015 0.399,1.424 0.268,1.793 0,2.122 -0.266,2.449 -0.667,2.86 -1.199,3.352 -1.731,3.884 -2.061,4.253 -2.184,4.459 v -4.797 c 0.33,-0.123 0.637,-0.185 0.922,-0.185 0.575,0 0.996,0.174 1.262,0.523 m -4.766,8.334 c 0,0.451 0.132,0.82 0.4,1.107 0.266,0.287 0.584,0.431 0.953,0.431 0.368,0 0.667,-0.144 0.892,-0.431 0.225,-0.287 0.337,-0.677 0.337,-1.169 0,-0.779 0.215,-1.435 0.647,-1.968 C -1.106,5.771 -0.461,5.156 0.399,4.459 1.302,3.721 1.979,3.065 2.43,2.491 2.882,1.916 3.105,1.199 3.105,0.338 c 0,-0.779 -0.337,-1.476 -1.013,-2.091 -0.677,-0.615 -1.548,-0.923 -2.614,-0.923 -0.493,0 -1.047,0.102 -1.662,0.308 v -13.409 l -2.582,-1.537 z"
             style="fill:#000000;fill-opacity:1;fill-rule:nonzero;stroke:none"
             id="path76"
             inkscape:connector-curvature="0" /></g><g
           id="g78"
           transform="matrix(0.99023946,0,0,0.99023946,566.17879,456.93493)"
           style="fill:#000000"><path
             d="m 0,0 c 1.332,0.962 2.358,2.254 3.076,3.875 0.718,1.619 1.076,3.352 1.076,5.197 0,2.5 -0.553,4.899 -1.661,7.196 -1.106,2.295 -2.839,4.172 -5.196,5.628 -2.359,1.455 -5.32,2.183 -8.889,2.183 -2.213,0 -4.561,-0.451 -7.042,-1.353 -2.481,-0.902 -4.643,-2.194 -6.489,-3.875 1.723,0.943 3.507,1.415 5.351,1.415 2.008,0 3.823,-0.513 5.443,-1.538 1.62,-1.025 2.893,-2.471 3.814,-4.336 0.922,-1.866 1.384,-3.988 1.384,-6.366 0,-1.353 -0.165,-2.644 -0.492,-3.875 -0.329,-1.23 -0.821,-2.297 -1.476,-3.198 1.066,-0.944 2.09,-1.579 3.076,-1.907 0.983,-0.329 2.151,-0.492 3.505,-0.492 1.681,0 3.187,0.482 4.52,1.446 m -14.484,1.199 c 1.845,1.722 2.767,3.998 2.767,6.827 0,2.993 -0.799,5.391 -2.398,7.197 -1.599,1.803 -3.691,2.706 -6.274,2.706 -1.394,0 -2.809,-0.328 -4.243,-0.984 -1.437,-0.657 -2.646,-1.579 -3.63,-2.768 -2.132,-2.543 -3.835,-5.228 -5.105,-8.057 0.862,-0.288 1.589,-0.699 2.183,-1.231 0.595,-0.533 1.221,-1.251 1.877,-2.153 0.697,-0.902 1.322,-1.63 1.875,-2.183 0.555,-0.553 1.313,-1.015 2.276,-1.384 0.964,-0.369 2.162,-0.554 3.599,-0.554 2.87,0 5.227,0.862 7.073,2.584 m -13.778,-3.383 c -1.598,1.312 -2.696,2.46 -3.29,3.444 -0.595,0.985 -0.953,1.558 -1.076,1.723 -0.247,0.286 -0.821,0.615 -1.723,0.983 -0.575,0.205 -0.994,0.41 -1.261,0.616 -0.267,0.204 -0.4,0.532 -0.4,0.983 0,0.288 0.103,0.697 0.308,1.231 0.574,1.394 2.029,3.957 4.367,7.688 l 0.922,1.476 c 0.574,0.901 0.964,1.569 1.17,1.999 0.204,0.431 0.307,0.871 0.307,1.323 0,0.861 -0.329,1.619 -0.985,2.276 -0.655,0.655 -1.435,0.984 -2.336,0.984 -0.985,0 -1.733,-0.299 -2.245,-0.893 -0.514,-0.594 -0.768,-1.281 -0.768,-2.06 0,-0.246 0.019,-0.41 0.059,-0.491 l 0.185,0.184 c 0.329,0.327 0.779,0.492 1.353,0.492 0.615,0 1.128,-0.215 1.537,-0.646 0.41,-0.431 0.617,-0.933 0.617,-1.506 0,-0.739 -0.257,-1.345 -0.769,-1.815 -0.514,-0.472 -1.139,-0.707 -1.876,-0.707 -1.148,0 -2.041,0.388 -2.676,1.168 -0.637,0.778 -0.953,1.722 -0.953,2.83 0,1.638 0.532,3.033 1.599,4.181 1.066,1.149 2.377,1.723 3.937,1.723 1.394,0 2.613,-0.43 3.659,-1.292 1.045,-0.861 1.568,-1.948 1.568,-3.259 v -0.493 c 4.552,4.552 9.698,6.828 15.438,6.828 4.1,0 7.525,-0.861 10.272,-2.584 C 1.426,22.48 3.454,20.275 4.767,17.591 6.079,14.904 6.735,12.064 6.735,9.072 6.735,6.735 6.283,4.551 5.382,2.521 4.479,0.492 3.178,-1.128 1.477,-2.337 -0.225,-3.548 -2.225,-4.152 -4.52,-4.152 c -3.075,0 -5.803,1.024 -8.18,3.075 -0.165,-0.123 -0.678,-0.483 -1.538,-1.076 -0.862,-0.595 -1.917,-1.076 -3.168,-1.446 -1.251,-0.368 -2.634,-0.553 -4.151,-0.553 -2.871,0 -5.105,0.655 -6.705,1.968"
             style="fill:#000000;fill-opacity:1;fill-rule:nonzero;stroke:none"
             id="path80"
             inkscape:connector-curvature="0" /></g><g
           id="g82"
           transform="matrix(0.99023946,0,0,0.99023946,552.20136,434.70385)"
           style="fill:#000000"><path
             d="m 0,0 c -1.722,0.677 -3.3,1.712 -4.735,3.106 -0.204,0.123 -0.309,0.307 -0.309,0.554 0,0.287 0.155,0.553 0.462,0.799 0.308,0.247 0.668,0.37 1.076,0.37 0.452,0 0.801,-0.123 1.045,-0.37 C -0.04,2.574 2.583,1.63 5.412,1.63 c 2.052,0 3.968,0.502 5.751,1.507 1.784,1.005 3.209,2.45 4.275,4.336 1.067,1.887 1.6,4.101 1.6,6.642 0,1.477 -0.164,2.933 -0.493,4.368 -0.123,0.409 -0.185,1.085 -0.185,2.029 0,0.943 0.062,1.558 0.185,1.846 l 1.23,0.676 c 0.412,-0.615 0.699,-1.241 0.862,-1.876 0.164,-0.636 0.308,-1.302 0.429,-1.999 0.123,-0.697 0.206,-1.23 0.246,-1.599 0.29,-1.147 0.432,-2.378 0.432,-3.69 0,-2.953 -0.678,-5.556 -2.03,-7.812 C 16.36,3.804 14.577,2.06 12.363,0.831 10.148,-0.4 7.791,-1.015 5.289,-1.015 3.485,-1.015 1.723,-0.676 0,0"
             style="fill:#000000;fill-opacity:1;fill-rule:nonzero;stroke:none"
             id="path84"
             inkscape:connector-curvature="0" /></g><g
           id="g86"
           transform="matrix(0.99023946,0,0,0.99023946,579.2753,453.70645)"
           style="fill:#000000"><path
             d="m 0,0 c -0.268,0.266 -0.401,0.563 -0.401,0.892 0,0.697 0.369,1.25 1.108,1.661 3.443,1.27 5.165,4.591 5.165,9.964 v 4.367 c 0,3.936 -0.409,6.621 -1.229,8.056 -0.82,1.435 -2.051,2.154 -3.691,2.154 -1.393,0 -2.439,-0.452 -3.136,-1.354 -0.698,-0.902 -1.046,-2.358 -1.046,-4.366 l 0.061,-1.415 c 0,-0.615 -0.431,-0.923 -1.291,-0.923 -0.329,0 -0.616,0.092 -0.86,0.277 -0.246,0.184 -0.391,0.44 -0.432,0.769 v 1.661 c 0,2.829 0.656,4.879 1.969,6.151 1.311,1.27 2.89,1.906 4.735,1.906 2.953,0 4.961,-1.098 6.028,-3.291 1.065,-2.194 1.6,-5.403 1.6,-9.625 V 12.517 C 8.58,8.866 7.983,6.017 6.796,3.967 5.605,1.916 3.863,0.501 1.567,-0.277 1.444,-0.359 1.238,-0.4 0.952,-0.4 0.584,-0.4 0.266,-0.267 0,0"
             style="fill:#000000;fill-opacity:1;fill-rule:nonzero;stroke:none"
             id="path88"
             inkscape:connector-curvature="0" /></g><g
           id="g90"
           transform="matrix(0.99023946,0,0,0.99023946,610.54904,484.70758)"
           style="fill:#000000"><path
             d="m 0,0 c -1.846,0.923 -3.228,2.153 -4.152,3.69 -0.922,1.538 -1.383,3.168 -1.383,4.89 0,1.968 0.603,3.814 1.813,5.536 1.209,1.722 2.8,3.095 4.767,4.12 1.969,1.025 4.039,1.538 6.212,1.538 2.338,0 4.449,-0.43 6.336,-1.291 1.886,-0.861 3.372,-2.082 4.46,-3.66 1.085,-1.579 1.629,-3.393 1.629,-5.443 0,-1.353 -0.38,-2.553 -1.139,-3.598 -0.758,-1.046 -1.712,-1.845 -2.858,-2.399 -1.15,-0.554 -2.298,-0.83 -3.446,-0.83 -2.502,0 -4.243,0.697 -5.228,2.091 -0.287,0.369 -0.43,0.717 -0.43,1.045 0,0.328 0.103,0.574 0.307,0.739 0.206,0.163 0.471,0.245 0.8,0.245 0.37,0 0.635,-0.103 0.799,-0.307 0.616,-0.533 1.2,-0.871 1.754,-1.015 0.552,-0.144 1.219,-0.215 1.998,-0.215 1.19,0 2.277,0.389 3.26,1.169 0.984,0.778 1.477,1.803 1.477,3.075 0,2.255 -0.954,4.099 -2.861,5.536 -1.906,1.435 -4.192,2.152 -6.858,2.152 -1.682,0 -3.301,-0.39 -4.86,-1.169 C 0.839,15.12 -0.421,14.085 -1.385,12.793 -2.349,11.501 -2.829,10.097 -2.829,8.58 -2.829,7.351 -2.471,6.182 -1.753,5.075 -1.036,3.967 0.04,3.065 1.476,2.368 2.911,1.67 4.653,1.322 6.704,1.322 7.155,1.322 7.555,1.159 7.902,0.831 8.251,0.501 8.426,0.154 8.426,-0.215 8.426,-0.543 8.281,-0.821 7.996,-1.046 7.708,-1.271 7.278,-1.384 6.704,-1.384 4.08,-1.384 1.846,-0.923 0,0 m -10.087,-30.784 c -1.764,0.943 -3.179,2.316 -4.245,4.121 -1.065,1.804 -1.599,3.976 -1.599,6.519 0,2.296 0.44,4.255 1.323,5.875 0.881,1.619 1.948,2.839 3.199,3.659 1.25,0.82 2.387,1.23 3.413,1.23 -0.983,0.082 -1.682,0.123 -2.091,0.123 -0.984,0 -1.866,-0.102 -2.645,-0.307 -0.78,-0.206 -1.313,-0.329 -1.6,-0.369 -0.082,-0.042 -0.246,-0.062 -0.491,-0.062 -0.451,0 -0.822,0.143 -1.108,0.431 -0.287,0.286 -0.429,0.615 -0.429,0.984 0,0.369 0.123,0.697 0.368,0.984 0.246,0.286 0.595,0.45 1.046,0.492 0.86,0.205 1.926,0.308 3.199,0.308 2.336,0 4.263,-0.35 5.781,-1.046 -0.616,0.738 -0.924,1.578 -0.924,2.522 0,0.984 0.391,1.845 1.17,2.583 0.778,0.738 1.844,1.107 3.199,1.107 0.737,0 1.362,-0.123 1.875,-0.369 0.512,-0.246 1.077,-0.575 1.691,-0.984 0.862,-0.656 1.6,-0.984 2.215,-0.984 0.369,0 0.654,-0.134 0.86,-0.4 C 4.326,-4.634 4.428,-4.951 4.428,-5.32 4.428,-5.649 4.326,-5.935 4.12,-6.182 3.914,-6.428 3.629,-6.55 3.26,-6.55 c -0.615,0 -1.139,0.101 -1.57,0.307 -0.429,0.205 -0.953,0.533 -1.567,0.984 -0.287,0.205 -0.595,0.409 -0.924,0.615 -0.327,0.205 -0.676,0.349 -1.045,0.431 l -0.492,0.062 c -0.533,0 -0.984,-0.154 -1.353,-0.462 -0.369,-0.307 -0.553,-0.667 -0.553,-1.076 0,-0.698 0.308,-1.261 0.922,-1.691 0.616,-0.432 1.763,-0.975 3.445,-1.63 1.024,-0.37 1.537,-0.883 1.537,-1.538 0,-0.164 -0.02,-0.287 -0.061,-0.369 -0.042,-0.329 -0.196,-0.584 -0.461,-0.77 -0.267,-0.183 -0.565,-0.276 -0.892,-0.276 l -0.431,0.062 -1.415,0.369 c -1.066,0.328 -2.112,0.491 -3.136,0.491 -2.542,0 -4.594,-0.86 -6.151,-2.583 -1.558,-1.722 -2.337,-3.896 -2.337,-6.52 0,-1.927 0.409,-3.597 1.23,-5.012 0.82,-1.414 1.907,-2.491 3.261,-3.229 1.352,-0.738 2.848,-1.108 4.489,-1.108 2.787,0 4.951,0.902 6.489,2.707 1.537,1.804 2.306,4.183 2.306,7.135 0,0.861 0.471,1.292 1.415,1.292 0.9,0 1.352,-0.431 1.352,-1.292 0,-2.952 0.78,-5.331 2.338,-7.135 1.558,-1.805 3.731,-2.707 6.519,-2.707 1.599,0 3.086,0.37 4.46,1.108 1.374,0.738 2.47,1.815 3.29,3.229 0.82,1.415 1.231,3.085 1.231,5.012 0,2.584 -0.79,4.747 -2.368,6.49 -1.579,1.742 -3.62,2.613 -6.12,2.613 -0.983,0 -2.052,-0.163 -3.198,-0.491 l -1.354,-0.369 -0.43,-0.062 c -0.738,0 -1.209,0.348 -1.415,1.046 v 0.369 c 0,0.778 0.512,1.291 1.538,1.538 1.393,0.285 2.357,0.614 2.89,0.984 0.78,0.532 1.17,1.25 1.17,2.152 0,0.656 -0.144,1.292 -0.431,1.907 l -0.062,0.369 c 0,0.286 0.123,0.543 0.37,0.769 0.246,0.225 0.553,0.338 0.922,0.338 0.656,0 1.106,-0.267 1.353,-0.8 0.369,-0.779 0.554,-1.64 0.554,-2.583 0,-1.23 -0.348,-2.174 -1.046,-2.83 h 0.676 c 1.887,0 3.568,-0.553 5.044,-1.659 1.477,-1.108 2.614,-2.543 3.413,-4.306 0.801,-1.764 1.2,-3.588 1.2,-5.475 0,-2.543 -0.533,-4.715 -1.599,-6.519 -1.068,-1.805 -2.492,-3.178 -4.275,-4.121 -1.784,-0.944 -3.721,-1.415 -5.813,-1.415 -2.296,0 -4.449,0.585 -6.457,1.754 -2.01,1.168 -3.26,2.633 -3.752,4.397 -0.616,-1.805 -1.866,-3.281 -3.751,-4.428 -1.888,-1.149 -4.04,-1.723 -6.459,-1.723 -2.132,0 -4.081,0.471 -5.843,1.415"
             style="fill:#000000;fill-opacity:1;fill-rule:nonzero;stroke:none"
             id="path92"
             inkscape:connector-curvature="0" /></g><g
           id="g94"
           transform="matrix(0.99023946,0,0,0.99023946,648.85893,454.22385)"
           style="fill:#000000"><path
             d="m 0,0 c -1.765,0.943 -3.179,2.316 -4.243,4.122 -1.069,1.803 -1.6,3.976 -1.6,6.519 0,2.131 0.481,4.069 1.445,5.813 0.963,1.741 2.295,3.115 3.999,4.12 1.7,1.005 3.597,1.507 5.688,1.507 1.559,0 3.115,-0.287 4.674,-0.861 1.559,-0.575 2.912,-1.476 4.06,-2.706 0.41,-0.452 0.615,-0.903 0.615,-1.353 0,-0.329 -0.123,-0.606 -0.368,-0.83 -0.247,-0.227 -0.535,-0.339 -0.862,-0.339 -0.493,0 -0.983,0.266 -1.476,0.8 -0.78,0.778 -1.774,1.403 -2.982,1.875 -1.211,0.471 -2.429,0.708 -3.661,0.708 -2.419,0 -4.429,-0.841 -6.027,-2.522 -1.6,-1.682 -2.399,-3.752 -2.399,-6.212 0,-1.928 0.41,-3.598 1.23,-5.013 C -1.087,4.214 0,3.137 1.353,2.399 2.706,1.661 4.182,1.292 5.781,1.292 c 2.788,0 4.961,0.901 6.521,2.706 1.556,1.804 2.336,4.183 2.336,7.135 0,0.862 0.452,1.292 1.353,1.292 0.903,0 1.355,-0.43 1.355,-1.292 0,-2.952 0.777,-5.331 2.336,-7.135 1.558,-1.805 3.731,-2.706 6.52,-2.706 1.599,0 3.084,0.369 4.458,1.107 1.374,0.738 2.47,1.815 3.292,3.229 0.819,1.415 1.23,3.085 1.23,5.013 0,2.583 -0.78,4.746 -2.337,6.489 -1.56,1.743 -3.589,2.614 -6.09,2.614 -1.025,0 -2.111,-0.164 -3.259,-0.492 l -1.354,-0.369 -0.43,-0.062 c -0.698,0 -1.149,0.348 -1.353,1.046 l -0.061,0.369 c 0,0.779 0.512,1.291 1.537,1.538 1.435,0.286 2.419,0.615 2.952,0.984 0.737,0.533 1.107,1.25 1.107,2.153 0,0.614 -0.123,1.25 -0.37,1.906 -0.04,0.082 -0.061,0.205 -0.061,0.37 0,0.285 0.123,0.542 0.369,0.768 0.247,0.225 0.555,0.338 0.923,0.338 0.656,0 1.107,-0.267 1.354,-0.8 0.368,-0.779 0.552,-1.64 0.552,-2.582 0,-1.231 -0.348,-2.175 -1.045,-2.83 h 0.738 c 1.885,0 3.546,-0.554 4.982,-1.66 1.435,-1.108 2.553,-2.543 3.353,-4.306 0.799,-1.764 1.199,-3.588 1.199,-5.474 0,-2.543 -0.534,-4.716 -1.6,-6.519 C 35.222,2.316 33.808,0.943 32.045,0 c -1.763,-0.943 -3.712,-1.415 -5.843,-1.415 -2.298,0 -4.439,0.585 -6.427,1.754 -1.99,1.168 -3.252,2.634 -3.784,4.397 C 15.377,2.931 14.126,1.455 12.24,0.308 10.354,-0.841 8.2,-1.415 5.781,-1.415 3.689,-1.415 1.763,-0.943 0,0"
             style="fill:#000000;fill-opacity:1;fill-rule:nonzero;stroke:none"
             id="path96"
             inkscape:connector-curvature="0" /></g><g
           id="g98"
           transform="matrix(0.99023946,0,0,0.99023946,363.44828,379.5497)"
           style="fill:#000000"><path
             d="m 0,0 c 1.312,2.071 1.969,4.541 1.969,7.412 0,2.5 -0.545,4.899 -1.631,7.196 -1.087,2.296 -2.81,4.172 -5.165,5.628 -2.36,1.455 -5.322,2.183 -8.889,2.183 -2.667,0 -5.187,-0.553 -7.564,-1.661 -2.379,-1.106 -4.306,-2.521 -5.783,-4.243 1.722,0.943 3.505,1.415 5.351,1.415 3.65,0 6.633,-1.129 8.95,-3.383 2.316,-2.256 3.475,-5.413 3.475,-9.472 0,-2.42 -0.41,-4.45 -1.23,-6.089 0.901,-0.821 1.752,-1.375 2.553,-1.661 0.799,-0.287 1.752,-0.431 2.859,-0.431 2.091,0 3.793,1.035 5.105,3.106 m -27.709,-1.538 c 0.8,1.087 1.199,2.492 1.199,4.214 0,0.656 0.094,1.189 0.277,1.599 0.184,0.41 0.544,0.615 1.077,0.615 0.615,0 0.994,-0.195 1.137,-0.584 0.143,-0.39 0.215,-0.933 0.215,-1.63 0,-1.682 0.483,-3.066 1.447,-4.152 0.962,-1.087 2.387,-1.63 4.275,-1.63 1.803,0 3.26,0.809 4.366,2.43 1.108,1.619 1.661,3.537 1.661,5.751 0,3.567 -0.913,6.212 -2.737,7.934 -1.824,1.722 -4.358,2.583 -7.597,2.583 -1.516,0 -3.158,-0.36 -4.92,-1.076 -1.763,-0.718 -3.28,-1.999 -4.55,-3.844 L -38.072,2 c 0.737,-1.559 1.65,-2.81 2.736,-3.752 1.087,-0.944 2.347,-1.415 3.782,-1.415 1.764,0 3.046,0.543 3.845,1.629 m -8.948,-2.49 c -1.396,1.189 -2.912,3.198 -4.552,6.028 l 8.549,12.116 c 0.656,0.82 0.983,1.804 0.983,2.952 0,1.066 -0.327,1.969 -0.983,2.707 -0.656,0.738 -1.476,1.107 -2.46,1.107 -0.944,0 -1.682,-0.307 -2.215,-0.923 -0.532,-0.615 -0.799,-1.292 -0.799,-2.029 0,-0.247 0.02,-0.41 0.062,-0.493 l 0.185,0.186 c 0.367,0.327 0.819,0.491 1.353,0.491 0.614,0 1.137,-0.215 1.567,-0.646 0.432,-0.43 0.646,-0.933 0.646,-1.507 0,-0.737 -0.256,-1.343 -0.769,-1.814 -0.514,-0.472 -1.138,-0.708 -1.875,-0.708 -1.189,0 -2.102,0.39 -2.737,1.169 -0.636,0.778 -0.954,1.722 -0.954,2.829 0,1.64 0.533,3.035 1.599,4.183 1.066,1.148 2.378,1.722 3.937,1.722 1.516,0 2.839,-0.513 3.968,-1.538 1.126,-1.025 1.69,-2.317 1.69,-3.874 v -0.493 c 1.6,2.297 3.804,4.152 6.612,5.567 2.808,1.415 5.853,2.122 9.134,2.122 4.06,0 7.473,-0.861 10.241,-2.584 2.768,-1.722 4.807,-3.936 6.12,-6.642 1.312,-2.707 1.968,-5.536 1.968,-8.488 0,-2.337 -0.39,-4.52 -1.168,-6.551 -0.779,-2.029 -1.907,-3.65 -3.383,-4.858 -1.476,-1.211 -3.199,-1.815 -5.167,-1.815 -2.625,0 -4.9,0.923 -6.827,2.768 -1.764,-1.845 -3.814,-2.768 -6.15,-2.768 -1.682,0 -3.209,0.481 -4.583,1.445 -1.374,0.964 -2.204,2.122 -2.491,3.476 -0.246,-1.395 -0.944,-2.564 -2.091,-3.506 -1.149,-0.944 -2.584,-1.415 -4.307,-1.415 -2.009,0 -3.71,0.594 -5.103,1.784"
             style="fill:#000000;fill-opacity:1;fill-rule:nonzero;stroke:none"
             id="path100"
             inkscape:connector-curvature="0" /></g><g
           id="g102"
           transform="matrix(0.99023946,0,0,0.99023946,417.99077,415.18049)"
           style="fill:#000000"><path
             d="M 0,0 C 0.266,0.348 0.399,0.687 0.399,1.014 0.399,1.424 0.266,1.793 0,2.122 -0.268,2.449 -0.669,2.86 -1.2,3.352 -1.733,3.884 -2.063,4.253 -2.186,4.459 v -4.797 c 0.33,-0.124 0.636,-0.185 0.924,-0.185 0.574,0 0.994,0.174 1.262,0.523 m -4.768,8.334 c 0,0.451 0.132,0.82 0.4,1.107 0.266,0.287 0.584,0.431 0.953,0.431 0.369,0 0.667,-0.144 0.892,-0.431 0.225,-0.287 0.337,-0.677 0.337,-1.169 0,-0.779 0.217,-1.435 0.648,-1.968 C -1.108,5.771 -0.463,5.156 0.399,4.459 1.3,3.721 1.978,3.065 2.428,2.491 2.88,1.916 3.105,1.199 3.105,0.338 3.105,-0.441 2.768,-1.138 2.09,-1.753 1.414,-2.368 0.542,-2.676 -0.524,-2.676 c -0.492,0 -1.045,0.102 -1.662,0.308 V -17.314 H -4.768 Z M -5.875,-37.52 c 1.641,1.046 2.91,2.461 3.812,4.245 0.904,1.784 1.354,3.7 1.354,5.75 0,2.338 -0.512,4.572 -1.538,6.705 -1.024,2.132 -2.623,3.875 -4.796,5.228 -2.174,1.353 -4.901,2.029 -8.181,2.029 -2.912,0 -5.454,-0.594 -7.627,-1.783 -2.173,-1.19 -4.716,-3.26 -7.627,-6.212 0.902,0.163 1.558,0.246 1.969,0.246 2.952,0 5.351,-0.821 7.197,-2.46 1.844,-1.641 2.767,-3.936 2.767,-6.889 0,-1.149 -0.102,-2.153 -0.309,-3.014 -0.205,-0.861 -0.511,-1.763 -0.921,-2.706 1.27,-0.944 2.521,-1.63 3.751,-2.06 1.231,-0.432 2.727,-0.647 4.491,-0.647 2.131,0 4.017,0.524 5.658,1.568 m -17.899,0.708 c 1.64,1.517 2.462,3.568 2.462,6.151 0,2.214 -0.74,3.915 -2.215,5.105 -1.477,1.188 -3.22,1.784 -5.228,1.784 -1.475,0 -2.697,-0.308 -3.659,-0.923 -0.964,-0.615 -2.145,-1.62 -3.538,-3.013 -0.902,-0.903 -1.999,-1.713 -3.29,-2.43 -1.291,-0.718 -2.43,-1.077 -3.413,-1.077 l -0.555,0.062 c 1.066,-2.338 2.696,-4.244 4.89,-5.72 2.194,-1.476 4.685,-2.215 7.473,-2.215 3.076,0 5.433,0.758 7.073,2.276 m -17.252,-1.292 c -2.645,2.461 -4.685,5.7 -6.12,9.719 1.108,-0.534 2.193,-0.8 3.261,-0.8 1.844,0 3.536,0.697 5.073,2.091 1.539,1.394 3.167,3.198 4.89,5.413 0.45,0.574 0.677,1.311 0.677,2.214 0,1.066 -0.308,2.039 -0.923,2.922 -0.614,0.881 -1.394,1.321 -2.337,1.321 -0.944,0 -1.682,-0.286 -2.215,-0.86 -0.533,-0.575 -0.799,-1.23 -0.799,-1.968 v -0.492 c 0.409,0.45 0.922,0.676 1.539,0.676 0.614,0 1.136,-0.195 1.567,-0.584 0.431,-0.39 0.645,-0.892 0.645,-1.507 0,-0.779 -0.267,-1.405 -0.798,-1.876 -0.534,-0.472 -1.251,-0.707 -2.154,-0.707 -1.066,0 -1.927,0.389 -2.583,1.168 -0.656,0.778 -0.983,1.722 -0.983,2.83 0,1.639 0.553,3.044 1.659,4.212 1.108,1.169 2.481,1.754 4.122,1.754 1.558,0 2.9,-0.523 4.029,-1.569 1.126,-1.046 1.793,-2.327 1.998,-3.844 1.764,1.722 3.281,3.065 4.552,4.029 1.271,0.962 2.777,1.732 4.52,2.306 1.744,0.574 3.803,0.862 6.182,0.862 3.773,0 6.96,-0.81 9.564,-2.43 2.604,-1.62 4.552,-3.712 5.843,-6.274 1.293,-2.563 1.938,-5.238 1.938,-8.027 0,-2.582 -0.492,-4.961 -1.475,-7.134 -0.986,-2.174 -2.492,-3.905 -4.522,-5.198 -2.03,-1.291 -4.581,-1.937 -7.657,-1.937 -1.968,0 -3.701,0.286 -5.198,0.861 -1.498,0.574 -2.921,1.517 -4.274,2.829 -1.476,-1.353 -2.974,-2.306 -4.49,-2.859 -1.518,-0.554 -3.302,-0.831 -5.352,-0.831 -4.141,0 -7.535,1.23 -10.179,3.69"
             style="fill:#000000;fill-opacity:1;fill-rule:nonzero;stroke:none"
             id="path104"
             inkscape:connector-curvature="0" /></g><g
           id="g106"
           transform="matrix(0.99023946,0,0,0.99023946,447.77331,394.25871)"
           style="fill:#000000"><path
             d="m 0,0 c 1.576,-0.861 2.828,-2.102 3.751,-3.721 0.923,-1.62 1.384,-3.536 1.384,-5.751 0,-2.297 -0.554,-4.336 -1.66,-6.12 -1.108,-1.783 -2.667,-3.178 -4.675,-4.182 -2.009,-1.004 -4.326,-1.507 -6.951,-1.507 -2.746,0 -5.136,0.656 -7.164,1.968 -2.031,1.312 -3.589,3.085 -4.675,5.32 -1.087,2.235 -1.631,4.726 -1.631,7.474 0,3.156 0.82,6.006 2.462,8.549 1.638,2.542 3.782,4.521 6.427,5.935 2.644,1.415 5.381,2.142 8.211,2.184 1.516,0 2.869,-0.072 4.058,-0.215 C 0.727,9.789 1.998,9.534 3.352,9.165 3.883,9.042 4.273,8.835 4.52,8.55 4.766,8.262 4.889,7.935 4.889,7.565 4.889,7.155 4.735,6.827 4.428,6.582 4.12,6.335 3.721,6.212 3.229,6.212 c -0.248,0 -0.453,0.02 -0.617,0.062 -1.106,0.327 -2.285,0.594 -3.536,0.8 -1.251,0.204 -2.368,0.307 -3.351,0.307 -2.421,0 -4.758,-0.564 -7.013,-1.691 -2.256,-1.128 -4.089,-2.738 -5.504,-4.829 -1.416,-2.09 -2.123,-4.51 -2.123,-7.258 0,-2.05 0.463,-3.997 1.385,-5.843 0.922,-1.845 2.234,-3.332 3.935,-4.459 1.701,-1.128 3.7,-1.691 5.997,-1.691 2.87,0 5.239,0.82 7.105,2.46 1.865,1.64 2.799,3.834 2.799,6.581 0,2.501 -0.699,4.449 -2.092,5.844 -1.395,1.393 -3.179,2.09 -5.352,2.09 -1.803,0 -3.281,-0.502 -4.427,-1.506 -1.148,-1.006 -1.723,-2.266 -1.723,-3.783 0,-1.231 0.369,-2.286 1.108,-3.168 0.738,-0.882 1.66,-1.322 2.768,-1.322 0.531,0 1.004,0.143 1.414,0.43 -0.246,0.164 -0.452,0.431 -0.615,0.8 -0.164,0.37 -0.245,0.697 -0.245,0.985 0,0.532 0.204,1.014 0.614,1.445 0.41,0.43 0.901,0.645 1.475,0.645 0.657,0 1.209,-0.246 1.662,-0.737 0.45,-0.492 0.677,-1.129 0.677,-1.907 0,-1.272 -0.473,-2.306 -1.415,-3.106 -0.944,-0.799 -2.153,-1.2 -3.629,-1.2 -2.009,0 -3.598,0.677 -4.766,2.029 -1.17,1.354 -1.754,3.035 -1.754,5.044 0,1.6 0.431,3.015 1.291,4.244 0.862,1.231 1.969,2.173 3.322,2.83 1.353,0.655 2.746,0.984 4.182,0.984 C -3.313,1.292 -1.58,0.861 0,0"
             style="fill:#000000;fill-opacity:1;fill-rule:nonzero;stroke:none"
             id="path108"
             inkscape:connector-curvature="0" /></g><g
           id="g110"
           transform="matrix(0.99023946,0,0,0.99023946,496.80086,377.9058)"
           style="fill:#000000"><path
             d="m 0,0 c 1.332,0.963 2.357,2.254 3.075,3.875 0.718,1.619 1.077,3.352 1.077,5.197 0,2.5 -0.553,4.899 -1.661,7.196 -1.106,2.296 -2.839,4.172 -5.197,5.628 -2.358,1.455 -5.319,2.184 -8.888,2.184 -2.213,0 -4.561,-0.452 -7.043,-1.353 -2.48,-0.903 -4.642,-2.194 -6.488,-3.875 1.723,0.942 3.507,1.414 5.351,1.414 2.008,0 3.823,-0.513 5.443,-1.537 1.62,-1.026 2.892,-2.472 3.814,-4.336 0.922,-1.867 1.384,-3.989 1.384,-6.367 0,-1.353 -0.165,-2.644 -0.492,-3.875 -0.329,-1.23 -0.821,-2.297 -1.477,-3.198 1.067,-0.944 2.091,-1.579 3.077,-1.906 0.983,-0.329 2.151,-0.493 3.505,-0.493 1.681,0 3.187,0.482 4.52,1.446 m -14.484,1.199 c 1.845,1.722 2.767,3.998 2.767,6.827 0,2.993 -0.799,5.392 -2.398,7.197 -1.599,1.803 -3.691,2.706 -6.274,2.706 -1.395,0 -2.809,-0.328 -4.243,-0.984 -1.437,-0.657 -2.646,-1.579 -3.63,-2.768 -2.133,-2.543 -3.835,-5.228 -5.105,-8.057 0.862,-0.287 1.589,-0.698 2.183,-1.23 0.595,-0.534 1.221,-1.251 1.877,-2.153 0.697,-0.903 1.322,-1.63 1.875,-2.183 0.555,-0.554 1.313,-1.015 2.276,-1.384 0.964,-0.37 2.162,-0.554 3.599,-0.554 2.87,0 5.227,0.861 7.073,2.583 m -13.778,-3.383 c -1.599,1.312 -2.697,2.46 -3.29,3.445 -0.595,0.984 -0.953,1.558 -1.077,1.722 -0.246,0.286 -0.821,0.615 -1.722,0.984 -0.575,0.205 -0.994,0.409 -1.261,0.616 -0.268,0.204 -0.4,0.532 -0.4,0.983 0,0.287 0.103,0.697 0.308,1.23 0.574,1.394 2.029,3.957 4.367,7.689 l 0.922,1.476 c 0.573,0.901 0.964,1.568 1.17,1.998 0.204,0.432 0.306,0.872 0.306,1.324 0,0.86 -0.328,1.618 -0.984,2.275 -0.656,0.656 -1.435,0.984 -2.336,0.984 -0.985,0 -1.733,-0.298 -2.245,-0.892 -0.514,-0.595 -0.768,-1.282 -0.768,-2.06 0,-0.247 0.019,-0.41 0.059,-0.492 l 0.185,0.185 c 0.329,0.327 0.779,0.491 1.353,0.491 0.615,0 1.127,-0.215 1.537,-0.646 0.41,-0.43 0.617,-0.933 0.617,-1.506 0,-0.738 -0.257,-1.344 -0.77,-1.815 -0.513,-0.472 -1.138,-0.707 -1.875,-0.707 -1.148,0 -2.041,0.389 -2.676,1.168 -0.637,0.778 -0.954,1.722 -0.954,2.83 0,1.639 0.533,3.034 1.6,4.182 1.066,1.148 2.377,1.722 3.937,1.722 1.394,0 2.613,-0.43 3.659,-1.291 1.045,-0.861 1.568,-1.948 1.568,-3.26 v -0.492 c 4.552,4.551 9.698,6.827 15.438,6.827 4.1,0 7.525,-0.861 10.272,-2.583 C 1.426,22.48 3.454,20.276 4.767,17.591 6.079,14.905 6.735,12.065 6.735,9.072 6.735,6.735 6.283,4.552 5.382,2.521 4.479,0.492 3.178,-1.128 1.477,-2.337 c -1.702,-1.21 -3.703,-1.815 -5.997,-1.815 -3.075,0 -5.803,1.025 -8.18,3.075 -0.165,-0.123 -0.678,-0.482 -1.538,-1.076 -0.862,-0.595 -1.917,-1.076 -3.168,-1.446 -1.251,-0.368 -2.634,-0.553 -4.151,-0.553 -2.871,0 -5.105,0.656 -6.705,1.968"
             style="fill:#000000;fill-opacity:1;fill-rule:nonzero;stroke:none"
             id="path112"
             inkscape:connector-curvature="0" /></g><g
           id="g114"
           transform="matrix(0.99023946,0,0,0.99023946,509.89638,374.67781)"
           style="fill:#000000"><path
             d="m 0,0 c -0.267,0.266 -0.4,0.563 -0.4,0.892 0,0.697 0.369,1.25 1.108,1.661 3.443,1.27 5.165,4.591 5.165,9.964 v 4.366 c 0,3.937 -0.409,6.622 -1.229,8.057 -0.821,1.435 -2.052,2.154 -3.692,2.154 -1.393,0 -2.438,-0.452 -3.135,-1.354 -0.698,-0.903 -1.046,-2.358 -1.046,-4.366 l 0.061,-1.415 c 0,-0.615 -0.431,-0.923 -1.291,-0.923 -0.329,0 -0.616,0.092 -0.86,0.277 -0.247,0.184 -0.391,0.44 -0.432,0.769 v 1.661 c 0,2.829 0.656,4.879 1.969,6.151 1.31,1.27 2.89,1.906 4.734,1.906 2.954,0 4.962,-1.098 6.029,-3.291 1.065,-2.194 1.6,-5.403 1.6,-9.626 V 12.517 C 8.581,8.866 7.984,6.017 6.797,3.967 5.606,1.916 3.864,0.501 1.568,-0.277 1.445,-0.36 1.239,-0.4 0.952,-0.4 0.585,-0.4 0.267,-0.268 0,0"
             style="fill:#000000;fill-opacity:1;fill-rule:nonzero;stroke:none"
             id="path116"
             inkscape:connector-curvature="0" /></g><g
           id="g118"
           transform="matrix(0.99023946,0,0,0.99023946,517.63065,415.18049)"
           style="fill:#000000"><path
             d="M 0,0 C 0.268,0.348 0.399,0.687 0.399,1.014 0.399,1.424 0.268,1.793 0,2.122 -0.266,2.449 -0.667,2.86 -1.2,3.352 -1.731,3.884 -2.061,4.253 -2.184,4.459 v -4.797 c 0.33,-0.124 0.637,-0.185 0.922,-0.185 0.575,0 0.996,0.174 1.262,0.523 m -4.767,8.334 c 0,0.451 0.133,0.82 0.4,1.107 0.267,0.287 0.584,0.431 0.954,0.431 0.367,0 0.666,-0.144 0.892,-0.431 0.225,-0.287 0.337,-0.677 0.337,-1.169 0,-0.779 0.215,-1.435 0.646,-1.968 C -1.106,5.771 -0.461,5.156 0.399,4.459 1.302,3.721 1.979,3.065 2.43,2.491 2.882,1.916 3.105,1.199 3.105,0.338 c 0,-0.779 -0.337,-1.476 -1.013,-2.091 -0.678,-0.615 -1.548,-0.923 -2.614,-0.923 -0.494,0 -1.047,0.102 -1.662,0.308 v -13.409 l -2.583,3.075 z"
             style="fill:#000000;fill-opacity:1;fill-rule:nonzero;stroke:none"
             id="path120"
             inkscape:connector-curvature="0" /></g><g
           id="g122"
           transform="matrix(0.99023946,0,0,0.99023946,545.7075,377.5098)"
           style="fill:#000000"><path
             d="m 0,0 c 2.03,1.188 3.63,2.788 4.798,4.798 1.17,2.008 1.754,4.222 1.754,6.642 0,2.337 -0.606,4.53 -1.816,6.581 -1.209,2.05 -2.829,3.68 -4.858,4.89 -2.029,1.21 -4.213,1.815 -6.551,1.815 -2.42,0 -4.635,-0.554 -6.641,-1.661 -2.011,-1.107 -3.611,-2.675 -4.798,-4.706 -1.192,-2.029 -1.784,-4.336 -1.784,-6.919 0,-2.42 0.592,-4.644 1.784,-6.673 1.187,-2.03 2.787,-3.629 4.798,-4.798 2.006,-1.168 4.221,-1.753 6.641,-1.753 2.419,0 4.645,0.594 6.673,1.784 m -14.638,-2.337 c -2.44,1.435 -4.377,3.372 -5.812,5.813 -1.436,2.438 -2.153,5.094 -2.153,7.964 0,2.665 0.4,5.053 1.199,7.166 0.8,2.111 2.081,4.479 3.844,7.104 2.173,3.198 5.199,6.94 9.073,11.225 3.874,4.284 8.088,8.457 12.639,12.516 0.369,0.328 0.8,0.492 1.291,0.492 0.369,0 0.677,-0.113 0.924,-0.338 0.246,-0.226 0.369,-0.523 0.369,-0.892 0,-0.452 -0.226,-0.882 -0.677,-1.292 -4.511,-3.936 -8.98,-8.283 -13.408,-13.039 -4.428,-4.757 -7.442,-8.406 -9.042,-10.948 1.312,1.189 2.809,2.153 4.491,2.891 1.68,0.738 3.421,1.107 5.227,1.107 2.992,0 5.7,-0.718 8.119,-2.153 2.419,-1.436 4.326,-3.373 5.72,-5.812 C 8.56,17.027 9.258,14.351 9.258,11.44 9.258,8.57 8.54,5.914 7.104,3.476 5.669,1.035 3.731,-0.902 1.293,-2.337 -1.147,-3.772 -3.804,-4.49 -6.673,-4.49 c -2.87,0 -5.526,0.718 -7.965,2.153"
             style="fill:#000000;fill-opacity:1;fill-rule:nonzero;stroke:none"
             id="path124"
             inkscape:connector-curvature="0" /></g><g
           id="g126"
           transform="matrix(0.99023946,0,0,0.99023946,565.2579,376.3222)"
           style="fill:#000000"><path
             d="m 0,0 c -2.235,1.415 -3.988,3.3 -5.259,5.658 -1.271,2.358 -1.907,4.849 -1.907,7.474 v 0.184 c 0,0.492 0.071,0.861 0.215,1.107 0.144,0.246 0.441,0.369 0.892,0.369 0.534,0 0.892,-0.153 1.077,-0.461 0.184,-0.308 0.278,-0.707 0.278,-1.199 0,-2.133 0.553,-4.173 1.659,-6.12 1.108,-1.949 2.625,-3.517 4.551,-4.705 1.929,-1.19 4.04,-1.785 6.336,-1.785 3.034,0 5.669,1.036 7.904,3.107 2.234,2.07 3.7,4.664 4.397,7.781 0.164,0.861 0.554,1.291 1.169,1.291 0.328,0 0.636,-0.083 0.922,-0.246 0.287,-0.205 0.432,-0.513 0.432,-0.922 0,-0.165 -0.042,-0.452 -0.123,-0.862 C 21.598,7.104 19.866,4.079 17.346,1.599 14.822,-0.882 11.532,-2.123 7.474,-2.123 4.726,-2.123 2.234,-1.415 0,0"
             style="fill:#000000;fill-opacity:1;fill-rule:nonzero;stroke:none"
             id="path128"
             inkscape:connector-curvature="0" /></g><g
           id="g130"
           transform="matrix(0.99023946,0,0,0.99023946,596.71642,376.77871)"
           style="fill:#000000"><path
             d="m 0,0 c -2.952,2.501 -4.43,5.925 -4.43,10.272 0,2.008 0.442,3.813 1.324,5.413 0.88,1.599 2.008,2.829 3.382,3.69 1.372,0.861 2.716,1.27 4.029,1.229 -1.068,0.779 -1.599,1.764 -1.599,2.953 0,1.025 0.399,1.958 1.199,2.799 0.799,0.84 1.815,1.261 3.044,1.261 0.739,0 1.354,-0.124 1.846,-0.369 0.492,-0.247 1.066,-0.596 1.723,-1.046 0.531,-0.329 0.953,-0.575 1.259,-0.738 0.308,-0.165 0.648,-0.246 1.015,-0.246 0.329,0 0.595,-0.134 0.801,-0.4 0.204,-0.267 0.307,-0.584 0.307,-0.953 0,-0.329 -0.103,-0.615 -0.307,-0.862 -0.206,-0.246 -0.472,-0.368 -0.801,-0.368 -0.656,0 -1.209,0.112 -1.66,0.338 -0.451,0.225 -0.944,0.543 -1.477,0.953 -0.737,0.615 -1.414,0.985 -2.028,1.108 H 7.134 C 6.601,25.034 6.15,24.89 5.781,24.603 5.412,24.315 5.228,23.967 5.228,23.557 c 0,-0.615 0.265,-1.148 0.799,-1.599 0.532,-0.452 1.373,-0.883 2.522,-1.292 1.066,-0.369 1.598,-0.902 1.598,-1.599 L 10.086,18.698 C 9.881,18 9.43,17.652 8.733,17.652 l -0.43,0.062 c -0.287,0.04 -0.79,0.154 -1.507,0.339 -0.718,0.184 -1.363,0.255 -1.939,0.215 -1.926,-0.165 -3.495,-0.995 -4.704,-2.491 -1.211,-1.498 -1.814,-3.332 -1.814,-5.505 0,-3.445 1.22,-6.161 3.66,-8.15 2.438,-1.989 5.771,-2.983 9.994,-2.983 3.116,0 5.771,0.83 7.965,2.491 2.194,1.661 3.844,3.792 4.951,6.397 1.108,2.603 1.66,5.279 1.66,8.026 0,4.757 -1.045,8.858 -3.136,12.301 -2.09,3.445 -4.87,6.059 -8.334,7.843 -3.466,1.783 -7.187,2.676 -11.163,2.676 -2.542,0 -5.044,-0.37 -7.504,-1.108 -0.246,-0.082 -0.452,-0.123 -0.616,-0.123 -0.45,0 -0.809,0.133 -1.075,0.4 -0.267,0.266 -0.401,0.584 -0.401,0.953 0,0.574 0.39,1.046 1.17,1.415 2.829,0.943 5.616,1.415 8.364,1.415 4.429,0 8.59,-1.077 12.486,-3.229 3.895,-2.153 7.033,-5.188 9.411,-9.103 2.376,-3.916 3.568,-8.396 3.568,-13.44 0,-3.404 -0.648,-6.622 -1.939,-9.656 C 26.108,3.362 24.15,0.913 21.527,-0.954 18.902,-2.819 15.724,-3.751 11.993,-3.751 6.949,-3.751 2.952,-2.501 0,0"
             style="fill:#000000;fill-opacity:1;fill-rule:nonzero;stroke:none"
             id="path132"
             inkscape:connector-curvature="0" /></g></g></g><g
       id="g144"
       transform="matrix(1.4815063,0,0,1.4815063,-11.293211,-534.93909)"
       style="fill:#000000"><g
         id="g146"
         clip-path="url(#clipPath150)"
         style="fill:#000000"><g
           id="g152"
           transform="translate(69.3362,558.6793)"
           style="fill:#000000"><path
             d="M 0,0 H -1.44 L -2.744,1.475 -3.053,2.229 V 0 h -1.166 l -0.068,6.792 1.234,0.034 V 3.808 l 0.515,-0.686 0.857,1.646 h 1.236 L -1.749,2.161 Z m -7.375,-12.588 c -0.137,0.137 -0.205,0.308 -0.205,0.514 0,0.206 0.068,0.377 0.205,0.549 0.138,0.137 0.309,0.206 0.515,0.206 0.206,0 0.378,-0.069 0.514,-0.206 0.138,-0.138 0.206,-0.343 0.206,-0.549 0,-0.206 -0.068,-0.377 -0.206,-0.514 -0.136,-0.138 -0.308,-0.206 -0.514,-0.206 -0.206,0 -0.377,0.068 -0.515,0.206 m 0.687,13.789 c 0.206,0.171 0.308,0.377 0.308,0.617 V 2.195 C -6.654,2.195 -6.929,2.161 -7.169,2.127 -7.443,2.092 -7.649,1.99 -7.82,1.887 -7.992,1.784 -8.061,1.612 -8.061,1.407 c 0,-0.137 0.069,-0.24 0.171,-0.344 0.138,-0.103 0.275,-0.137 0.447,-0.137 0.308,0.034 0.548,0.103 0.755,0.275 m -1.441,-16.362 h 0.857 v 0.72 H -8.129 Z M -6.243,0 -6.277,0.618 C -6.414,0.412 -6.586,0.24 -6.826,0.137 -7.066,0 -7.306,-0.068 -7.615,-0.068 c -0.343,0 -0.652,0.068 -0.892,0.205 -0.24,0.137 -0.411,0.309 -0.514,0.515 -0.103,0.206 -0.171,0.411 -0.171,0.618 0,0.548 0.171,0.925 0.514,1.2 0.343,0.24 0.72,0.411 1.132,0.48 0.343,0.069 0.686,0.103 1.132,0.069 v 0.068 c 0,0.24 -0.068,0.377 -0.206,0.48 C -6.757,3.67 -6.929,3.739 -7.135,3.739 -7.306,3.739 -7.478,3.67 -7.684,3.567 -7.89,3.464 -8.026,3.327 -8.164,3.19 l -0.651,0.618 c 0.206,0.308 0.48,0.583 0.857,0.754 0.343,0.172 0.721,0.274 1.132,0.274 0.514,0 0.927,-0.137 1.201,-0.411 0.274,-0.275 0.411,-0.617 0.411,-1.063 L -5.18,0.995 v -1.029 h -1.063 z m -1.028,-16.087 h -1.373 c -0.206,0 -0.343,-0.069 -0.446,-0.172 -0.102,-0.103 -0.172,-0.24 -0.172,-0.411 0,-0.241 0.104,-0.446 0.275,-0.583 0.206,-0.138 0.446,-0.206 0.755,-0.206 0.274,0 0.514,0.103 0.72,0.274 0.171,0.206 0.275,0.48 0.275,0.823 z m 2.778,0.583 c 0.343,-0.24 0.48,-0.618 0.48,-1.166 0,-0.618 -0.206,-1.064 -0.584,-1.338 -0.377,-0.275 -0.823,-0.412 -1.337,-0.412 H -6.14 l -0.068,0.789 c 0.343,0 0.617,0.103 0.788,0.275 0.172,0.171 0.274,0.377 0.274,0.651 0,0.206 -0.068,0.343 -0.205,0.446 -0.137,0.103 -0.308,0.172 -0.548,0.172 h -0.206 v -0.309 c 0,-0.583 -0.172,-1.063 -0.515,-1.441 -0.343,-0.377 -0.892,-0.583 -1.612,-0.583 -0.446,0 -0.824,0.069 -1.098,0.24 -0.309,0.172 -0.515,0.378 -0.686,0.652 -0.137,0.275 -0.24,0.514 -0.24,0.823 0,0.412 0.103,0.755 0.309,1.029 0.206,0.275 0.48,0.412 0.857,0.515 v 1.715 h 3.91 l -0.034,-0.961 h -0.891 v -0.72 h 0.48 c 0.445,-0.034 0.823,-0.137 1.132,-0.377 m -3.98,7.786 c 0.104,0.103 0.138,0.24 0.138,0.446 0,0.172 -0.068,0.343 -0.172,0.446 -0.102,0.103 -0.308,0.172 -0.549,0.172 h -0.171 l -0.412,0.789 -1.44,-1.133 h 0.171 c 0,-0.239 0,-0.445 0.069,-0.617 0.068,-0.171 0.205,-0.24 0.377,-0.24 0.138,0 0.24,0.069 0.309,0.171 0.068,0.103 0.103,0.275 0.103,0.515 h 0.754 c 0,-0.206 0.034,-0.377 0.104,-0.515 0.068,-0.102 0.205,-0.171 0.377,-0.171 0.137,0 0.24,0.034 0.342,0.137 M -11.285,2.47 c 0,0.72 0,1.338 -0.034,1.852 v 0.412 l 1.166,0.034 0.034,-3.087 V 0 h -1.166 z m 0.034,3.224 c -0.137,0.138 -0.206,0.309 -0.206,0.514 0,0.207 0.069,0.378 0.206,0.549 0.138,0.138 0.309,0.206 0.515,0.206 0.206,0 0.377,-0.068 0.514,-0.206 0.137,-0.137 0.206,-0.308 0.206,-0.549 0,-0.205 -0.069,-0.376 -0.206,-0.514 -0.137,-0.137 -0.308,-0.206 -0.514,-0.206 -0.206,0 -0.377,0.069 -0.515,0.206 M -5.18,-5.488 c 0.104,-0.309 0.172,-0.617 0.172,-0.961 0,-0.514 -0.102,-0.96 -0.308,-1.337 -0.206,-0.378 -0.481,-0.652 -0.824,-0.858 -0.342,-0.206 -0.72,-0.309 -1.131,-0.343 l -0.104,0.892 c 0.344,0.034 0.618,0.172 0.857,0.446 0.206,0.274 0.31,0.686 0.31,1.2 0,0.241 -0.069,0.481 -0.172,0.686 -0.102,0.206 -0.274,0.378 -0.515,0.515 -0.24,0.137 -0.48,0.206 -0.789,0.206 -0.206,0 -0.377,-0.035 -0.548,-0.069 -0.171,-0.068 -0.377,-0.137 -0.618,-0.274 l 0.172,-0.48 c 0.377,-0.035 0.652,-0.172 0.892,-0.412 0.24,-0.24 0.343,-0.549 0.343,-0.96 0,-0.515 -0.103,-0.927 -0.343,-1.235 -0.24,-0.309 -0.549,-0.446 -0.995,-0.446 -0.24,0 -0.446,0.034 -0.617,0.137 -0.172,0.103 -0.275,0.206 -0.343,0.343 -0.07,-0.137 -0.172,-0.274 -0.309,-0.343 -0.138,-0.103 -0.309,-0.137 -0.549,-0.137 -0.378,0 -0.652,0.137 -0.858,0.377 -0.205,0.24 -0.309,0.618 -0.343,1.029 l -0.274,-0.206 -0.549,0.789 2.161,1.681 0.309,0.206 c -0.137,0.068 -0.309,0.103 -0.481,0.103 -0.137,0 -0.274,-0.035 -0.377,-0.069 -0.102,-0.034 -0.206,-0.069 -0.308,-0.137 -0.103,-0.034 -0.172,-0.069 -0.206,-0.103 l -0.309,0.72 c 0.206,0.172 0.412,0.309 0.687,0.412 0.239,0.103 0.513,0.172 0.753,0.172 0.241,0 0.447,-0.035 0.687,-0.138 0.206,-0.103 0.377,-0.24 0.515,-0.411 0.548,0.343 1.097,0.514 1.646,0.514 0.275,0 0.549,-0.034 0.823,-0.103 v 1.818 h 1.064 v -2.401 c 0.171,-0.274 0.343,-0.514 0.479,-0.823 m -7.992,-2.607 c 0.104,0 0.206,0.069 0.344,0.103 l 0.274,-0.755 c -0.343,-0.24 -0.72,-0.343 -1.167,-0.343 -0.583,0 -1.028,0.172 -1.338,0.481 -0.308,0.308 -0.479,0.72 -0.479,1.269 0,0.754 0.411,1.372 1.268,1.818 l 0.858,0.206 h -2.092 v 0.72 h 2.538 v -1.235 c -0.48,-0.103 -0.857,-0.274 -1.097,-0.515 -0.275,-0.24 -0.412,-0.514 -0.412,-0.857 0,-0.275 0.103,-0.481 0.275,-0.652 0.171,-0.171 0.377,-0.24 0.651,-0.274 0.137,0 0.275,0.034 0.377,0.034 m 0.275,12.623 c 0.274,-0.24 0.412,-0.549 0.412,-0.961 V 0.035 h -1.202 v 1.543 c 0,0.823 0,1.338 -0.034,1.544 -0.034,0.205 -0.102,0.342 -0.205,0.445 -0.103,0.103 -0.274,0.138 -0.446,0.138 -0.206,0 -0.446,-0.069 -0.687,-0.241 -0.239,-0.137 -0.411,-0.342 -0.513,-0.548 0,-1.098 0,-2.058 0.034,-2.881 h -1.201 c -0.034,1.611 -0.034,3.224 -0.034,4.801 l 1.097,0.035 V 4.15 c 0.206,0.241 0.481,0.412 0.755,0.549 0.309,0.137 0.617,0.206 0.96,0.206 0.481,-0.034 0.789,-0.171 1.064,-0.377 m 0.652,-18.077 1.2,0.034 v -4.802 h -3.567 l 0.068,0.755 c -0.343,-0.618 -0.857,-0.926 -1.577,-0.926 -0.378,0 -0.687,0.102 -0.927,0.342 -0.274,0.241 -0.377,0.549 -0.377,0.927 v 3.67 l 1.2,0.034 v -3.121 c 0,-0.275 0.069,-0.48 0.172,-0.617 0.103,-0.138 0.275,-0.206 0.446,-0.206 0.171,0 0.309,0.034 0.446,0.137 0.138,0.103 0.24,0.206 0.308,0.343 v 3.43 l 1.132,0.034 v -3.841 h 1.51 v 3.807 z m -6.826,14.887 c 0.206,0.24 0.308,0.549 0.308,0.96 0,0.275 -0.068,0.549 -0.172,0.755 -0.102,0.206 -0.274,0.377 -0.445,0.48 -0.206,0.103 -0.378,0.172 -0.618,0.172 -0.343,0 -0.617,-0.138 -0.823,-0.378 -0.205,-0.24 -0.309,-0.583 -0.309,-0.994 0,-0.275 0.069,-0.48 0.172,-0.721 0.103,-0.205 0.274,-0.377 0.446,-0.48 0.205,-0.103 0.411,-0.172 0.617,-0.172 0.343,0.035 0.618,0.138 0.824,0.378 m 1.097,-6.792 c 0.549,0 0.96,-0.137 1.304,-0.446 0.343,-0.308 0.514,-0.72 0.514,-1.2 0,-0.378 -0.069,-0.721 -0.205,-0.995 -0.138,-0.275 -0.344,-0.514 -0.583,-0.652 -0.241,-0.137 -0.549,-0.24 -0.859,-0.24 -0.617,0 -1.028,0.206 -1.234,0.617 -0.138,-0.171 -0.275,-0.342 -0.481,-0.445 -0.206,-0.103 -0.445,-0.172 -0.719,-0.172 -0.618,0 -1.098,0.206 -1.408,0.617 -0.308,0.412 -0.479,0.961 -0.479,1.647 0,0.515 0.103,0.96 0.343,1.338 0.24,0.377 0.48,0.652 0.823,0.789 0.206,0.103 0.446,0.137 0.721,0.137 0.205,0 0.445,-0.034 0.651,-0.103 l -0.172,-0.857 c -0.068,0 -0.137,0.034 -0.205,0.034 -0.309,0 -0.549,-0.103 -0.755,-0.309 -0.206,-0.206 -0.308,-0.514 -0.308,-0.926 0,-0.378 0.068,-0.652 0.24,-0.823 0.171,-0.172 0.377,-0.241 0.617,-0.241 0.274,0 0.445,0.069 0.583,0.206 0.103,0.138 0.172,0.378 0.206,0.652 h 0.789 c 0,-0.309 0.069,-0.549 0.205,-0.686 0.138,-0.137 0.309,-0.206 0.549,-0.206 0.172,0 0.309,0.069 0.446,0.172 0.137,0.103 0.172,0.274 0.172,0.446 0,0.308 -0.103,0.549 -0.343,0.651 -0.241,0.137 -0.515,0.172 -0.892,0.172 -0.206,0 -0.515,-0.035 -0.892,-0.069 -0.034,0.241 -0.068,0.481 -0.068,0.686 0,0.446 0.102,0.824 0.274,1.098 0.137,0.206 0.309,0.377 0.583,0.515 0.241,0.103 0.515,0.171 0.789,0.171 0.652,0 1.166,-0.274 1.509,-0.823 l -0.48,-0.652 c -0.205,0.172 -0.343,0.274 -0.48,0.343 -0.103,0.069 -0.274,0.103 -0.48,0.103 -0.275,0 -0.481,-0.069 -0.617,-0.206 -0.138,-0.137 -0.172,-0.274 -0.172,-0.411 0.172,0.034 0.377,0.068 0.514,0.068 m -3.224,5.66 c -0.377,0.24 -0.652,0.515 -0.823,0.892 -0.172,0.377 -0.275,0.755 -0.275,1.2 0,0.515 0.103,0.961 0.309,1.338 0.206,0.377 0.48,0.686 0.823,0.892 0.343,0.206 0.755,0.308 1.235,0.308 0.48,0 0.892,-0.102 1.269,-0.308 0.344,-0.206 0.618,-0.515 0.823,-0.858 0.206,-0.377 0.275,-0.789 0.275,-1.234 0,-0.481 -0.103,-0.927 -0.275,-1.304 -0.171,-0.377 -0.445,-0.686 -0.789,-0.926 -0.343,-0.24 -0.754,-0.343 -1.234,-0.343 -0.515,0 -0.961,0.137 -1.338,0.343 m -3.876,-4.15 c 0.274,0 0.549,-0.035 0.789,-0.103 0.068,0.171 0.102,0.308 0.102,0.411 0,0.275 -0.102,0.446 -0.274,0.583 -0.171,0.137 -0.411,0.172 -0.686,0.172 -0.308,0 -0.548,-0.069 -0.754,-0.24 -0.207,-0.137 -0.309,-0.343 -0.309,-0.584 0,-0.137 0.068,-0.274 0.171,-0.445 0.344,0.137 0.652,0.206 0.961,0.206 m 5.179,-7.753 c 0.412,-0.205 0.755,-0.514 1.03,-0.926 0.239,-0.412 0.377,-0.857 0.377,-1.406 l 0.034,-4.254 h -1.064 v 3.637 c 0,0.686 -0.17,1.2 -0.548,1.577 -0.377,0.378 -0.824,0.549 -1.407,0.549 -0.274,0 -0.548,-0.068 -0.789,-0.206 -0.24,-0.137 -0.342,-0.309 -0.342,-0.514 0,-0.069 0,-0.137 0.034,-0.206 h 1.063 l -0.034,-0.995 h -0.927 v -0.754 c 0.24,0.137 0.481,0.205 0.823,0.205 0.481,0 0.859,-0.205 1.133,-0.549 0.275,-0.377 0.446,-0.857 0.446,-1.509 0,-0.514 -0.103,-0.994 -0.309,-1.406 -0.206,-0.446 -0.515,-0.789 -0.96,-1.029 -0.412,-0.24 -0.927,-0.377 -1.51,-0.377 h -1.269 c -0.309,0 -0.514,-0.069 -0.686,-0.206 -0.137,-0.138 -0.24,-0.309 -0.24,-0.515 l -1.234,0.172 c 0,0.446 0.17,0.823 0.513,1.132 0.344,0.308 0.789,0.445 1.407,0.445 h 1.063 c 0.687,0 1.167,0.138 1.51,0.446 0.308,0.309 0.48,0.789 0.48,1.475 0,0.309 -0.069,0.549 -0.172,0.721 -0.102,0.206 -0.274,0.274 -0.48,0.274 -0.103,0 -0.24,-0.034 -0.309,-0.103 -0.102,-0.068 -0.136,-0.171 -0.171,-0.309 v -1.886 h -1.097 v 3.773 h -1.236 v -3.842 H -26 v 4.837 h 2.504 c -0.034,0.103 -0.069,0.24 -0.069,0.411 0,0.344 0.103,0.652 0.343,0.892 0.241,0.241 0.515,0.446 0.858,0.583 0.343,0.138 0.719,0.206 1.097,0.206 0.481,-0.034 0.96,-0.137 1.372,-0.343 m -4.63,13.035 c 0.206,0.24 0.308,0.549 0.308,0.96 0,0.275 -0.068,0.549 -0.172,0.755 -0.102,0.206 -0.274,0.377 -0.445,0.48 -0.206,0.103 -0.378,0.172 -0.617,0.172 -0.344,0 -0.618,-0.138 -0.823,-0.378 -0.206,-0.24 -0.31,-0.583 -0.31,-0.994 0,-0.275 0.069,-0.48 0.172,-0.721 0.102,-0.205 0.274,-0.377 0.446,-0.48 0.205,-0.103 0.411,-0.172 0.617,-0.172 0.343,0.035 0.618,0.138 0.824,0.378 m -2.127,-1.132 c -0.377,0.24 -0.652,0.515 -0.824,0.892 -0.17,0.377 -0.274,0.755 -0.274,1.2 0,0.515 0.104,0.961 0.309,1.338 0.206,0.377 0.48,0.686 0.823,0.892 0.344,0.206 0.755,0.308 1.235,0.308 0.481,0 0.926,-0.102 1.269,-0.308 0.343,-0.206 0.618,-0.515 0.823,-0.858 0.206,-0.377 0.274,-0.789 0.274,-1.234 0,-0.481 -0.102,-0.927 -0.274,-1.304 -0.171,-0.377 -0.445,-0.686 -0.788,-0.926 -0.344,-0.24 -0.755,-0.343 -1.235,-0.343 -0.515,0 -0.96,0.137 -1.338,0.343 m -0.035,-7.924 c 0.172,0.103 0.275,0.206 0.275,0.378 0,0.137 -0.034,0.24 -0.137,0.308 -0.103,0.069 -0.24,0.103 -0.412,0.103 h -0.172 l -0.171,0.446 c -0.412,-0.343 -0.755,-0.583 -1.029,-0.686 h -0.103 c -0.103,0 -0.206,0 -0.24,0.034 0.103,-0.24 0.275,-0.411 0.515,-0.514 0.24,-0.103 0.515,-0.172 0.823,-0.172 0.24,-0.034 0.48,0 0.651,0.103 m -1.406,-9.021 c 0.137,0.24 0.206,0.514 0.206,0.892 0,0.24 -0.034,0.48 -0.103,0.72 -0.069,0.24 -0.171,0.412 -0.309,0.515 -0.137,0.137 -0.274,0.205 -0.445,0.205 -0.275,0 -0.412,-0.137 -0.412,-0.411 v -2.264 h 0.274 c 0.377,0 0.652,0.137 0.789,0.343 m 5.18,11.423 c 0.137,-0.309 0.206,-0.652 0.206,-1.03 0,-0.549 -0.104,-1.029 -0.31,-1.406 -0.205,-0.377 -0.479,-0.686 -0.788,-0.892 -0.343,-0.206 -0.72,-0.309 -1.132,-0.343 l -0.137,0.961 c 0.308,0.034 0.583,0.137 0.823,0.377 0.24,0.24 0.377,0.583 0.377,1.098 0,0.411 -0.103,0.788 -0.309,1.097 -0.206,0.309 -0.548,0.446 -0.994,0.446 -0.24,0 -0.48,-0.069 -0.686,-0.206 -0.206,-0.137 -0.447,-0.343 -0.686,-0.583 l 0.034,-0.343 c 0.309,-0.034 0.549,-0.137 0.789,-0.309 0.24,-0.171 0.377,-0.48 0.377,-0.857 0,-0.515 -0.172,-0.926 -0.514,-1.235 -0.343,-0.309 -0.824,-0.48 -1.475,-0.48 -0.583,0 -1.098,0.137 -1.51,0.446 -0.411,0.308 -0.651,0.686 -0.789,1.132 -0.068,0.171 -0.102,0.377 -0.136,0.583 -0.035,0.206 -0.035,0.48 -0.069,0.823 l 0.754,0.137 c 0.034,-0.24 0.104,-0.412 0.138,-0.549 0.377,0.103 0.823,0.378 1.304,0.858 l 0.034,0.034 c -0.07,0.206 -0.206,0.343 -0.378,0.446 -0.171,0.103 -0.343,0.172 -0.515,0.172 -0.205,0 -0.445,-0.103 -0.754,-0.275 l -0.344,0.686 c 0.481,0.412 0.927,0.584 1.338,0.584 0.309,0 0.583,-0.069 0.824,-0.241 0.24,-0.171 0.412,-0.377 0.514,-0.617 l 0.172,0.172 c -0.274,0.308 -0.446,0.686 -0.446,1.097 0,0.309 0.068,0.583 0.24,0.824 0.172,0.239 0.412,0.445 0.721,0.583 0.308,0.137 0.685,0.24 1.166,0.24 0.343,0 0.651,-0.069 0.926,-0.172 0.308,-0.103 0.548,-0.275 0.72,-0.514 0.206,-0.241 0.275,-0.515 0.275,-0.824 0,-0.206 -0.034,-0.377 -0.103,-0.548 -0.069,-0.172 -0.172,-0.344 -0.274,-0.515 0.274,-0.274 0.479,-0.515 0.617,-0.857 m -12.417,-9.605 c 0.102,-0.069 0.205,-0.137 0.343,-0.206 0.136,-0.068 0.274,-0.068 0.377,-0.068 0.378,0 0.548,0.137 0.548,0.445 0,0.138 -0.034,0.241 -0.136,0.309 -0.104,0.103 -0.206,0.137 -0.344,0.137 -0.309,0 -0.583,-0.205 -0.788,-0.617 m 6.242,19.449 c 0.275,-0.24 0.412,-0.549 0.412,-0.961 V 0.035 h -1.201 v 1.543 c 0,0.823 0,1.338 -0.034,1.544 -0.034,0.205 -0.103,0.342 -0.205,0.445 -0.104,0.035 -0.24,0.069 -0.412,0.069 -0.206,0 -0.411,-0.069 -0.652,-0.206 -0.24,-0.137 -0.412,-0.308 -0.549,-0.514 v -2.95 h -1.201 v 1.543 c 0,0.824 0,1.338 -0.034,1.544 -0.034,0.206 -0.102,0.343 -0.206,0.446 -0.102,0.103 -0.274,0.137 -0.445,0.137 -0.206,0 -0.412,-0.069 -0.653,-0.24 -0.239,-0.137 -0.377,-0.343 -0.513,-0.549 0,-1.097 0,-2.058 0.034,-2.881 h -1.201 c -0.034,1.612 -0.034,3.19 -0.034,4.802 l 1.097,0.034 V 4.048 c 0.206,0.205 0.481,0.411 0.823,0.549 0.343,0.137 0.653,0.239 0.996,0.239 0.274,0 0.514,-0.068 0.719,-0.171 0.206,-0.137 0.344,-0.309 0.447,-0.549 0.206,0.206 0.48,0.378 0.789,0.515 0.308,0.137 0.617,0.205 0.96,0.205 0.48,0.035 0.789,-0.102 1.063,-0.308 m -2.744,-7.444 c 0.446,-0.308 0.789,-0.72 0.995,-1.234 0.206,-0.515 0.309,-1.029 0.309,-1.578 0,-0.618 -0.103,-1.132 -0.275,-1.612 v -3.705 h -1.063 c -0.103,0.137 -0.24,0.274 -0.411,0.343 -0.172,0.103 -0.344,0.137 -0.481,0.137 -0.172,0 -0.308,-0.034 -0.446,-0.068 -0.137,-0.034 -0.275,-0.103 -0.445,-0.206 -0.172,-0.103 -0.344,-0.172 -0.481,-0.206 -0.138,-0.034 -0.274,-0.069 -0.446,-0.069 -0.343,0 -0.617,0.103 -0.858,0.309 -0.24,0.206 -0.445,0.446 -0.514,0.755 l 0.72,0.514 c 0.207,-0.308 0.447,-0.48 0.721,-0.48 0.103,0 0.171,0 0.275,0.035 0.102,0.034 0.239,0.102 0.377,0.171 0.206,0.103 0.376,0.171 0.548,0.206 0.172,0.068 0.343,0.068 0.515,0.068 0.343,0 0.617,-0.103 0.926,-0.308 v 1.166 c -0.446,-0.275 -0.926,-0.412 -1.543,-0.412 -0.515,0 -0.961,0.103 -1.372,0.275 -0.412,0.206 -0.721,0.48 -0.961,0.857 -0.24,0.377 -0.377,0.892 -0.377,1.475 0,0.549 0.102,0.961 0.308,1.304 0.207,0.343 0.515,0.48 0.926,0.48 0.138,0 0.309,-0.034 0.481,-0.069 0.136,-0.034 0.308,-0.103 0.446,-0.171 l 0.343,-0.172 c -0.034,-0.377 -0.069,-0.652 -0.069,-0.789 0,-0.343 0.069,-0.514 0.24,-0.514 0.172,0 0.274,0.171 0.274,0.514 0,0.309 -0.068,0.652 -0.205,1.029 l 0.994,0.103 c 0.172,-0.343 0.24,-0.72 0.24,-1.097 0,-0.447 -0.102,-0.789 -0.342,-1.098 -0.206,-0.274 -0.549,-0.446 -0.996,-0.446 -0.719,0 -1.097,0.411 -1.097,1.235 0,0.069 0,0.172 0.034,0.309 -0.103,0.068 -0.205,0.102 -0.274,0.102 -0.205,0 -0.275,-0.171 -0.275,-0.549 0,-0.514 0.172,-0.925 0.481,-1.234 0.308,-0.309 0.72,-0.446 1.235,-0.446 0.515,0 0.926,0.171 1.234,0.549 0.343,0.377 0.515,0.892 0.515,1.646 0,0.446 -0.103,0.858 -0.274,1.201 -0.172,0.343 -0.447,0.583 -0.755,0.789 -0.343,0.171 -0.686,0.274 -1.098,0.274 -0.24,0 -0.479,-0.034 -0.789,-0.103 -0.309,-0.069 -0.583,-0.171 -0.823,-0.308 l -0.309,0.788 c 0.309,0.172 0.653,0.309 1.064,0.447 0.378,0.137 0.755,0.205 1.131,0.205 0.619,0.069 1.202,-0.103 1.647,-0.412 m 4.014,-10.839 c 0.342,-0.24 0.583,-0.549 0.755,-0.926 0.17,-0.377 0.24,-0.789 0.24,-1.235 0,-0.686 -0.172,-1.2 -0.515,-1.578 -0.344,-0.377 -0.892,-0.583 -1.578,-0.583 h -0.24 c -0.103,-0.858 -0.481,-1.475 -1.132,-1.886 -0.651,-0.412 -1.441,-0.618 -2.367,-0.618 -0.892,0 -1.647,0.172 -2.264,0.549 -0.583,0.377 -1.029,0.858 -1.338,1.475 -0.274,0.583 -0.411,1.235 -0.411,1.955 0,0.686 0.103,1.269 0.274,1.784 0.206,0.514 0.446,0.892 0.79,1.166 0.342,0.275 0.719,0.412 1.166,0.412 0.308,0 0.583,-0.069 0.789,-0.206 0.205,-0.137 0.377,-0.309 0.479,-0.549 0.104,-0.206 0.172,-0.446 0.172,-0.686 0,-0.24 -0.068,-0.514 -0.172,-0.72 -0.102,-0.241 -0.274,-0.446 -0.514,-0.583 -0.24,-0.138 -0.514,-0.241 -0.858,-0.241 -0.205,0 -0.445,0.035 -0.617,0.103 -0.206,0.069 -0.343,0.172 -0.481,0.309 -0.034,-0.274 -0.068,-0.515 -0.068,-0.789 0,-0.549 0.104,-1.029 0.309,-1.475 0.206,-0.446 0.548,-0.823 0.995,-1.063 0.446,-0.275 1.029,-0.412 1.68,-0.412 0.583,0 1.098,0.137 1.544,0.378 0.411,0.239 0.686,0.617 0.754,1.097 h -2.263 v 4.528 l 1.201,0.034 v -3.601 h 1.097 v 2.572 c 0,0.343 0.137,0.652 0.377,0.858 0.241,0.206 0.549,0.309 0.96,0.309 0.515,0 0.927,-0.138 1.236,-0.378"
             style="fill:#000000;fill-opacity:1;fill-rule:nonzero;stroke:none"
             id="path154"
             inkscape:connector-curvature="0" /></g></g></g></g></svg>